<?xml version="1.0" encoding="utf-8" standalone="no"?>
<!DOCTYPE svg PUBLIC "-//W3C//DTD SVG 1.1//EN"
  "http://www.w3.org/Graphics/SVG/1.1/DTD/svg11.dtd">
<!-- Created with matplotlib (https://matplotlib.org/) -->
<svg height="288pt" version="1.1" viewBox="0 0 432 288" width="432pt" xmlns="http://www.w3.org/2000/svg" xmlns:xlink="http://www.w3.org/1999/xlink">
 <defs>
  <style type="text/css">
*{stroke-linecap:butt;stroke-linejoin:round;white-space:pre;}
  </style>
 </defs>
 <g id="figure_1">
  <g id="patch_1">
   <path d="M 0 288 
L 432 288 
L 432 0 
L 0 0 
z
" style="fill:#ffffff;"/>
  </g>
  <g id="axes_1">
   <g id="patch_2">
    <path d="M 54 252 
L 388.8 252 
L 388.8 34.56 
L 54 34.56 
z
" style="fill:#ffffff;"/>
   </g>
   <g id="matplotlib.axis_1">
    <g id="xtick_1">
     <g id="line2d_1">
      <defs>
       <path d="M 0 0 
L 0 3.5 
" id="mc401ff3581" style="stroke:#000000;stroke-width:0.8;"/>
      </defs>
      <g>
       <use style="stroke:#000000;stroke-width:0.8;" x="69.218182" xlink:href="#mc401ff3581" y="252"/>
      </g>
     </g>
     <g id="text_1">
      <!-- 0 -->
      <defs>
       <path d="M 31.78125 66.40625 
Q 24.171875 66.40625 20.328125 58.90625 
Q 16.5 51.421875 16.5 36.375 
Q 16.5 21.390625 20.328125 13.890625 
Q 24.171875 6.390625 31.78125 6.390625 
Q 39.453125 6.390625 43.28125 13.890625 
Q 47.125 21.390625 47.125 36.375 
Q 47.125 51.421875 43.28125 58.90625 
Q 39.453125 66.40625 31.78125 66.40625 
z
M 31.78125 74.21875 
Q 44.046875 74.21875 50.515625 64.515625 
Q 56.984375 54.828125 56.984375 36.375 
Q 56.984375 17.96875 50.515625 8.265625 
Q 44.046875 -1.421875 31.78125 -1.421875 
Q 19.53125 -1.421875 13.0625 8.265625 
Q 6.59375 17.96875 6.59375 36.375 
Q 6.59375 54.828125 13.0625 64.515625 
Q 19.53125 74.21875 31.78125 74.21875 
z
" id="DejaVuSans-48"/>
      </defs>
      <g transform="translate(66.036932 266.598437)scale(0.1 -0.1)">
       <use xlink:href="#DejaVuSans-48"/>
      </g>
     </g>
    </g>
    <g id="xtick_2">
     <g id="line2d_2">
      <g>
       <use style="stroke:#000000;stroke-width:0.8;" x="142.488195" xlink:href="#mc401ff3581" y="252"/>
      </g>
     </g>
     <g id="text_2">
      <!-- 500 -->
      <defs>
       <path d="M 10.796875 72.90625 
L 49.515625 72.90625 
L 49.515625 64.59375 
L 19.828125 64.59375 
L 19.828125 46.734375 
Q 21.96875 47.46875 24.109375 47.828125 
Q 26.265625 48.1875 28.421875 48.1875 
Q 40.625 48.1875 47.75 41.5 
Q 54.890625 34.8125 54.890625 23.390625 
Q 54.890625 11.625 47.5625 5.09375 
Q 40.234375 -1.421875 26.90625 -1.421875 
Q 22.3125 -1.421875 17.546875 -0.640625 
Q 12.796875 0.140625 7.71875 1.703125 
L 7.71875 11.625 
Q 12.109375 9.234375 16.796875 8.0625 
Q 21.484375 6.890625 26.703125 6.890625 
Q 35.15625 6.890625 40.078125 11.328125 
Q 45.015625 15.765625 45.015625 23.390625 
Q 45.015625 31 40.078125 35.4375 
Q 35.15625 39.890625 26.703125 39.890625 
Q 22.75 39.890625 18.8125 39.015625 
Q 14.890625 38.140625 10.796875 36.28125 
z
" id="DejaVuSans-53"/>
      </defs>
      <g transform="translate(132.944445 266.598437)scale(0.1 -0.1)">
       <use xlink:href="#DejaVuSans-53"/>
       <use x="63.623047" xlink:href="#DejaVuSans-48"/>
       <use x="127.246094" xlink:href="#DejaVuSans-48"/>
      </g>
     </g>
    </g>
    <g id="xtick_3">
     <g id="line2d_3">
      <g>
       <use style="stroke:#000000;stroke-width:0.8;" x="215.758209" xlink:href="#mc401ff3581" y="252"/>
      </g>
     </g>
     <g id="text_3">
      <!-- 1000 -->
      <defs>
       <path d="M 12.40625 8.296875 
L 28.515625 8.296875 
L 28.515625 63.921875 
L 10.984375 60.40625 
L 10.984375 69.390625 
L 28.421875 72.90625 
L 38.28125 72.90625 
L 38.28125 8.296875 
L 54.390625 8.296875 
L 54.390625 0 
L 12.40625 0 
z
" id="DejaVuSans-49"/>
      </defs>
      <g transform="translate(203.033209 266.598437)scale(0.1 -0.1)">
       <use xlink:href="#DejaVuSans-49"/>
       <use x="63.623047" xlink:href="#DejaVuSans-48"/>
       <use x="127.246094" xlink:href="#DejaVuSans-48"/>
       <use x="190.869141" xlink:href="#DejaVuSans-48"/>
      </g>
     </g>
    </g>
    <g id="xtick_4">
     <g id="line2d_4">
      <g>
       <use style="stroke:#000000;stroke-width:0.8;" x="289.028223" xlink:href="#mc401ff3581" y="252"/>
      </g>
     </g>
     <g id="text_4">
      <!-- 1500 -->
      <g transform="translate(276.303223 266.598437)scale(0.1 -0.1)">
       <use xlink:href="#DejaVuSans-49"/>
       <use x="63.623047" xlink:href="#DejaVuSans-53"/>
       <use x="127.246094" xlink:href="#DejaVuSans-48"/>
       <use x="190.869141" xlink:href="#DejaVuSans-48"/>
      </g>
     </g>
    </g>
    <g id="xtick_5">
     <g id="line2d_5">
      <g>
       <use style="stroke:#000000;stroke-width:0.8;" x="362.298236" xlink:href="#mc401ff3581" y="252"/>
      </g>
     </g>
     <g id="text_5">
      <!-- 2000 -->
      <defs>
       <path d="M 19.1875 8.296875 
L 53.609375 8.296875 
L 53.609375 0 
L 7.328125 0 
L 7.328125 8.296875 
Q 12.9375 14.109375 22.625 23.890625 
Q 32.328125 33.6875 34.8125 36.53125 
Q 39.546875 41.84375 41.421875 45.53125 
Q 43.3125 49.21875 43.3125 52.78125 
Q 43.3125 58.59375 39.234375 62.25 
Q 35.15625 65.921875 28.609375 65.921875 
Q 23.96875 65.921875 18.8125 64.3125 
Q 13.671875 62.703125 7.8125 59.421875 
L 7.8125 69.390625 
Q 13.765625 71.78125 18.9375 73 
Q 24.125 74.21875 28.421875 74.21875 
Q 39.75 74.21875 46.484375 68.546875 
Q 53.21875 62.890625 53.21875 53.421875 
Q 53.21875 48.921875 51.53125 44.890625 
Q 49.859375 40.875 45.40625 35.40625 
Q 44.1875 33.984375 37.640625 27.21875 
Q 31.109375 20.453125 19.1875 8.296875 
z
" id="DejaVuSans-50"/>
      </defs>
      <g transform="translate(349.573236 266.598437)scale(0.1 -0.1)">
       <use xlink:href="#DejaVuSans-50"/>
       <use x="63.623047" xlink:href="#DejaVuSans-48"/>
       <use x="127.246094" xlink:href="#DejaVuSans-48"/>
       <use x="190.869141" xlink:href="#DejaVuSans-48"/>
      </g>
     </g>
    </g>
   </g>
   <g id="matplotlib.axis_2">
    <g id="ytick_1">
     <g id="line2d_6">
      <defs>
       <path d="M 0 0 
L -3.5 0 
" id="me3e492bcea" style="stroke:#000000;stroke-width:0.8;"/>
      </defs>
      <g>
       <use style="stroke:#000000;stroke-width:0.8;" x="54" xlink:href="#me3e492bcea" y="225.991675"/>
      </g>
     </g>
     <g id="text_6">
      <!-- 800 -->
      <defs>
       <path d="M 31.78125 34.625 
Q 24.75 34.625 20.71875 30.859375 
Q 16.703125 27.09375 16.703125 20.515625 
Q 16.703125 13.921875 20.71875 10.15625 
Q 24.75 6.390625 31.78125 6.390625 
Q 38.8125 6.390625 42.859375 10.171875 
Q 46.921875 13.96875 46.921875 20.515625 
Q 46.921875 27.09375 42.890625 30.859375 
Q 38.875 34.625 31.78125 34.625 
z
M 21.921875 38.8125 
Q 15.578125 40.375 12.03125 44.71875 
Q 8.5 49.078125 8.5 55.328125 
Q 8.5 64.0625 14.71875 69.140625 
Q 20.953125 74.21875 31.78125 74.21875 
Q 42.671875 74.21875 48.875 69.140625 
Q 55.078125 64.0625 55.078125 55.328125 
Q 55.078125 49.078125 51.53125 44.71875 
Q 48 40.375 41.703125 38.8125 
Q 48.828125 37.15625 52.796875 32.3125 
Q 56.78125 27.484375 56.78125 20.515625 
Q 56.78125 9.90625 50.3125 4.234375 
Q 43.84375 -1.421875 31.78125 -1.421875 
Q 19.734375 -1.421875 13.25 4.234375 
Q 6.78125 9.90625 6.78125 20.515625 
Q 6.78125 27.484375 10.78125 32.3125 
Q 14.796875 37.15625 21.921875 38.8125 
z
M 18.3125 54.390625 
Q 18.3125 48.734375 21.84375 45.5625 
Q 25.390625 42.390625 31.78125 42.390625 
Q 38.140625 42.390625 41.71875 45.5625 
Q 45.3125 48.734375 45.3125 54.390625 
Q 45.3125 60.0625 41.71875 63.234375 
Q 38.140625 66.40625 31.78125 66.40625 
Q 25.390625 66.40625 21.84375 63.234375 
Q 18.3125 60.0625 18.3125 54.390625 
z
" id="DejaVuSans-56"/>
      </defs>
      <g transform="translate(27.9125 229.790893)scale(0.1 -0.1)">
       <use xlink:href="#DejaVuSans-56"/>
       <use x="63.623047" xlink:href="#DejaVuSans-48"/>
       <use x="127.246094" xlink:href="#DejaVuSans-48"/>
      </g>
     </g>
    </g>
    <g id="ytick_2">
     <g id="line2d_7">
      <g>
       <use style="stroke:#000000;stroke-width:0.8;" x="54" xlink:href="#me3e492bcea" y="199.872473"/>
      </g>
     </g>
     <g id="text_7">
      <!-- 1000 -->
      <g transform="translate(21.55 203.671692)scale(0.1 -0.1)">
       <use xlink:href="#DejaVuSans-49"/>
       <use x="63.623047" xlink:href="#DejaVuSans-48"/>
       <use x="127.246094" xlink:href="#DejaVuSans-48"/>
       <use x="190.869141" xlink:href="#DejaVuSans-48"/>
      </g>
     </g>
    </g>
    <g id="ytick_3">
     <g id="line2d_8">
      <g>
       <use style="stroke:#000000;stroke-width:0.8;" x="54" xlink:href="#me3e492bcea" y="173.753272"/>
      </g>
     </g>
     <g id="text_8">
      <!-- 1200 -->
      <g transform="translate(21.55 177.552491)scale(0.1 -0.1)">
       <use xlink:href="#DejaVuSans-49"/>
       <use x="63.623047" xlink:href="#DejaVuSans-50"/>
       <use x="127.246094" xlink:href="#DejaVuSans-48"/>
       <use x="190.869141" xlink:href="#DejaVuSans-48"/>
      </g>
     </g>
    </g>
    <g id="ytick_4">
     <g id="line2d_9">
      <g>
       <use style="stroke:#000000;stroke-width:0.8;" x="54" xlink:href="#me3e492bcea" y="147.634071"/>
      </g>
     </g>
     <g id="text_9">
      <!-- 1400 -->
      <defs>
       <path d="M 37.796875 64.3125 
L 12.890625 25.390625 
L 37.796875 25.390625 
z
M 35.203125 72.90625 
L 47.609375 72.90625 
L 47.609375 25.390625 
L 58.015625 25.390625 
L 58.015625 17.1875 
L 47.609375 17.1875 
L 47.609375 0 
L 37.796875 0 
L 37.796875 17.1875 
L 4.890625 17.1875 
L 4.890625 26.703125 
z
" id="DejaVuSans-52"/>
      </defs>
      <g transform="translate(21.55 151.43329)scale(0.1 -0.1)">
       <use xlink:href="#DejaVuSans-49"/>
       <use x="63.623047" xlink:href="#DejaVuSans-52"/>
       <use x="127.246094" xlink:href="#DejaVuSans-48"/>
       <use x="190.869141" xlink:href="#DejaVuSans-48"/>
      </g>
     </g>
    </g>
    <g id="ytick_5">
     <g id="line2d_10">
      <g>
       <use style="stroke:#000000;stroke-width:0.8;" x="54" xlink:href="#me3e492bcea" y="121.51487"/>
      </g>
     </g>
     <g id="text_10">
      <!-- 1600 -->
      <defs>
       <path d="M 33.015625 40.375 
Q 26.375 40.375 22.484375 35.828125 
Q 18.609375 31.296875 18.609375 23.390625 
Q 18.609375 15.53125 22.484375 10.953125 
Q 26.375 6.390625 33.015625 6.390625 
Q 39.65625 6.390625 43.53125 10.953125 
Q 47.40625 15.53125 47.40625 23.390625 
Q 47.40625 31.296875 43.53125 35.828125 
Q 39.65625 40.375 33.015625 40.375 
z
M 52.59375 71.296875 
L 52.59375 62.3125 
Q 48.875 64.0625 45.09375 64.984375 
Q 41.3125 65.921875 37.59375 65.921875 
Q 27.828125 65.921875 22.671875 59.328125 
Q 17.53125 52.734375 16.796875 39.40625 
Q 19.671875 43.65625 24.015625 45.921875 
Q 28.375 48.1875 33.59375 48.1875 
Q 44.578125 48.1875 50.953125 41.515625 
Q 57.328125 34.859375 57.328125 23.390625 
Q 57.328125 12.15625 50.6875 5.359375 
Q 44.046875 -1.421875 33.015625 -1.421875 
Q 20.359375 -1.421875 13.671875 8.265625 
Q 6.984375 17.96875 6.984375 36.375 
Q 6.984375 53.65625 15.1875 63.9375 
Q 23.390625 74.21875 37.203125 74.21875 
Q 40.921875 74.21875 44.703125 73.484375 
Q 48.484375 72.75 52.59375 71.296875 
z
" id="DejaVuSans-54"/>
      </defs>
      <g transform="translate(21.55 125.314088)scale(0.1 -0.1)">
       <use xlink:href="#DejaVuSans-49"/>
       <use x="63.623047" xlink:href="#DejaVuSans-54"/>
       <use x="127.246094" xlink:href="#DejaVuSans-48"/>
       <use x="190.869141" xlink:href="#DejaVuSans-48"/>
      </g>
     </g>
    </g>
    <g id="ytick_6">
     <g id="line2d_11">
      <g>
       <use style="stroke:#000000;stroke-width:0.8;" x="54" xlink:href="#me3e492bcea" y="95.395668"/>
      </g>
     </g>
     <g id="text_11">
      <!-- 1800 -->
      <g transform="translate(21.55 99.194887)scale(0.1 -0.1)">
       <use xlink:href="#DejaVuSans-49"/>
       <use x="63.623047" xlink:href="#DejaVuSans-56"/>
       <use x="127.246094" xlink:href="#DejaVuSans-48"/>
       <use x="190.869141" xlink:href="#DejaVuSans-48"/>
      </g>
     </g>
    </g>
    <g id="ytick_7">
     <g id="line2d_12">
      <g>
       <use style="stroke:#000000;stroke-width:0.8;" x="54" xlink:href="#me3e492bcea" y="69.276467"/>
      </g>
     </g>
     <g id="text_12">
      <!-- 2000 -->
      <g transform="translate(21.55 73.075686)scale(0.1 -0.1)">
       <use xlink:href="#DejaVuSans-50"/>
       <use x="63.623047" xlink:href="#DejaVuSans-48"/>
       <use x="127.246094" xlink:href="#DejaVuSans-48"/>
       <use x="190.869141" xlink:href="#DejaVuSans-48"/>
      </g>
     </g>
    </g>
    <g id="ytick_8">
     <g id="line2d_13">
      <g>
       <use style="stroke:#000000;stroke-width:0.8;" x="54" xlink:href="#me3e492bcea" y="43.157266"/>
      </g>
     </g>
     <g id="text_13">
      <!-- 2200 -->
      <g transform="translate(21.55 46.956484)scale(0.1 -0.1)">
       <use xlink:href="#DejaVuSans-50"/>
       <use x="63.623047" xlink:href="#DejaVuSans-50"/>
       <use x="127.246094" xlink:href="#DejaVuSans-48"/>
       <use x="190.869141" xlink:href="#DejaVuSans-48"/>
      </g>
     </g>
    </g>
   </g>
   <g id="line2d_14">
    <path clip-path="url(#p3fa1c88686)" d="M 69.218182 165.719006 
L 69.364722 165.538783 
L 69.511262 166.921795 
L 69.657802 164.128346 
L 69.804342 167.916937 
L 69.950882 166.780751 
L 70.390502 171.806086 
L 70.683582 165.875721 
L 70.830122 165.828706 
L 70.976662 165.917512 
L 71.269742 163.019586 
L 71.416282 166.891758 
L 71.562822 166.210047 
L 71.709362 169.264687 
L 72.002442 162.749253 
L 72.295522 165.877027 
L 72.442062 167.352762 
L 72.588602 162.668283 
L 72.735142 162.105414 
L 72.881682 165.124794 
L 73.174763 159.998901 
L 73.321303 162.053176 
L 73.467843 162.544217 
L 73.760923 160.928744 
L 74.054003 165.043824 
L 74.493623 161.71232 
L 74.640163 165.024235 
L 74.786703 164.414352 
L 74.933243 163.088802 
L 75.079783 160.604866 
L 75.372863 163.621634 
L 75.519403 163.961184 
L 75.665943 168.943421 
L 75.812483 168.227755 
L 75.959023 164.900169 
L 76.105563 170.552364 
L 76.252103 169.568976 
L 76.398643 167.347538 
L 76.545183 167.001459 
L 76.691723 174.706623 
L 76.838263 171.978472 
L 76.984803 179.448564 
L 77.277883 166.560044 
L 77.570963 175.291693 
L 77.717503 175.598594 
L 77.864043 172.554401 
L 78.010583 172.054218 
L 78.157123 185.978364 
L 78.303664 178.146522 
L 78.450204 178.838681 
L 78.743284 186.913432 
L 79.475984 213.033939 
L 79.622524 199.434977 
L 79.769064 200.132359 
L 79.915604 211.908201 
L 80.062144 206.868501 
L 80.208684 207.636406 
L 80.355224 201.779175 
L 80.501764 205.742764 
L 80.648304 213.352593 
L 80.794844 211.87294 
L 81.087924 219.602918 
L 81.234464 207.64163 
L 81.381004 209.00244 
L 81.674084 203.953599 
L 81.820624 204.273559 
L 81.967164 199.121546 
L 82.260244 212.294766 
L 82.406784 208.884904 
L 82.699864 213.0692 
L 82.846404 219.161504 
L 82.992944 211.457645 
L 83.286024 219.363927 
L 83.432564 218.270839 
L 83.725645 232.202821 
L 84.018725 219.225496 
L 84.165265 218.49677 
L 84.458345 213.423115 
L 84.604885 223.874713 
L 84.897965 216.753313 
L 85.044505 220.086123 
L 85.337585 211.665293 
L 85.484125 214.411727 
L 85.630665 213.031327 
L 85.777205 216.381115 
L 85.923745 215.579255 
L 86.070285 217.036707 
L 86.216825 211.210819 
L 86.363365 212.35484 
L 86.509905 214.854447 
L 86.656445 214.514898 
L 86.949525 217.743231 
L 87.242605 216.484285 
L 87.389145 216.9257 
L 87.828765 208.779121 
L 87.975305 209.347214 
L 88.121845 208.400393 
L 88.268385 212.063611 
L 88.414925 211.661375 
L 88.708005 216.815999 
L 88.854545 216.616187 
L 89.001085 220.425673 
L 89.147626 220.279405 
L 89.294166 219.446203 
L 89.440706 225.309964 
L 89.587246 220.736491 
L 89.733786 222.400285 
L 90.026866 221.215779 
L 90.173406 220.022131 
L 90.319946 216.315817 
L 90.613026 222.61185 
L 90.759566 222.669312 
L 90.906106 220.962423 
L 91.052646 221.782565 
L 91.492266 216.86432 
L 91.638806 222.444687 
L 91.785346 221.585365 
L 91.931886 221.396001 
L 92.078426 222.486478 
L 92.224966 227.406029 
L 92.371506 227.503976 
L 92.664586 229.903025 
L 92.811126 233.39255 
L 92.957666 229.499483 
L 93.250746 232.151888 
L 93.397286 234.468661 
L 93.543826 238.944187 
L 93.690366 239.530563 
L 93.836906 237.370505 
L 93.983446 241.330176 
L 94.129986 241.221781 
L 94.276526 242.116364 
L 94.423066 236.491594 
L 94.569607 236.261745 
L 94.716147 232.424834 
L 94.862687 231.666071 
L 95.009227 232.013457 
L 95.302307 226.729542 
L 95.595387 230.100225 
L 95.741927 222.998414 
L 95.888467 225.192427 
L 96.035007 224.179002 
L 96.181547 221.70029 
L 96.474627 227.620207 
L 96.767707 224.544671 
L 97.060787 220.441344 
L 97.207327 221.358128 
L 97.353867 223.960907 
L 97.500407 222.705879 
L 97.646947 218.605165 
L 97.793487 218.321771 
L 97.940027 220.57194 
L 98.379647 216.902193 
L 98.526187 221.76167 
L 98.672727 219.451427 
L 98.819267 220.304219 
L 99.112347 217.342301 
L 99.405427 218.787999 
L 99.551967 216.374585 
L 99.698507 216.482979 
L 99.845047 215.867872 
L 99.991588 211.986559 
L 100.138128 212.435809 
L 100.284668 210.381534 
L 100.431208 211.96697 
L 100.577748 209.114753 
L 100.724288 211.725367 
L 100.870828 211.841597 
L 101.017368 215.032058 
L 101.163908 213.837104 
L 101.310448 215.167878 
L 101.456988 211.663987 
L 101.603528 211.870329 
L 101.750068 212.478906 
L 101.896608 214.456129 
L 102.043148 214.629822 
L 102.189688 211.583017 
L 102.336228 213.83841 
L 102.922388 207.089209 
L 103.068928 208.784345 
L 103.215468 207.386968 
L 103.508548 207.820546 
L 103.655088 207.390886 
L 103.801628 207.81924 
L 104.094708 206.897233 
L 104.387788 211.36884 
L 104.534328 211.533391 
L 104.827408 210.159521 
L 104.973948 213.841022 
L 105.120488 213.571995 
L 105.267028 212.809314 
L 105.413569 210.286199 
L 105.560109 210.46381 
L 105.706649 209.375945 
L 105.853189 210.408959 
L 105.999729 209.885269 
L 106.146269 213.399608 
L 106.292809 213.099237 
L 106.439349 215.40948 
L 106.585889 215.601456 
L 106.732429 215.193997 
L 106.878969 215.657613 
L 107.025509 212.794948 
L 107.172049 212.169393 
L 107.465129 207.611593 
L 107.611669 207.658607 
L 107.904749 205.804144 
L 108.051289 205.870748 
L 108.197829 202.968905 
L 108.490909 202.199694 
L 108.783989 203.117784 
L 108.930529 201.602871 
L 109.077069 201.507535 
L 109.223609 199.529006 
L 109.370149 199.134606 
L 109.516689 199.517252 
L 109.663229 200.253814 
L 109.809769 198.503827 
L 109.956309 198.945242 
L 110.102849 200.610341 
L 110.395929 198.209986 
L 110.542469 199.338336 
L 110.689009 202.519654 
L 111.27517 196.46 
L 111.42171 196.533134 
L 111.56825 196.215785 
L 111.71479 196.200114 
L 111.86133 195.826609 
L 112.00787 196.094331 
L 112.15441 197.179584 
L 112.30095 200.128442 
L 112.44749 200.558102 
L 113.03365 195.514485 
L 113.18019 194.107966 
L 113.32673 194.292106 
L 113.61981 192.999206 
L 113.76635 190.892692 
L 113.91289 191.319741 
L 114.05943 190.952766 
L 114.20597 191.428136 
L 114.35251 190.513964 
L 114.79213 194.076623 
L 114.93867 191.647537 
L 115.23175 192.418053 
L 115.37829 195.974183 
L 115.52483 196.580148 
L 115.81791 192.72626 
L 115.96445 192.352755 
L 116.404071 189.922364 
L 116.550611 190.314152 
L 116.843691 187.262123 
L 116.990231 188.421816 
L 117.136771 187.085818 
L 117.429851 189.241959 
L 117.576391 187.738798 
L 117.869471 191.129071 
L 118.016011 191.591381 
L 118.162551 194.305166 
L 118.309091 191.238771 
L 118.455631 195.146204 
L 118.748711 193.942109 
L 118.895251 193.799759 
L 119.041791 191.170862 
L 119.188331 190.82217 
L 119.334871 187.716597 
L 119.481411 187.725739 
L 119.627951 187.007461 
L 119.774491 188.479278 
L 119.921031 187.664359 
L 120.067571 185.59833 
L 120.214111 185.465122 
L 120.360651 185.533032 
L 120.507191 187.478912 
L 120.653731 187.93861 
L 120.800271 185.997954 
L 120.946811 186.075005 
L 121.093351 185.424637 
L 121.239891 187.924245 
L 121.386431 187.383577 
L 121.532972 185.655792 
L 121.679512 185.606166 
L 121.826052 186.82332 
L 121.972592 186.031909 
L 122.119132 186.388436 
L 122.265672 187.865477 
L 122.705292 185.975752 
L 122.851832 184.970163 
L 122.998372 185.777246 
L 123.144912 185.614001 
L 123.291452 187.324809 
L 123.437992 186.490301 
L 123.731072 184.459533 
L 123.877612 184.123901 
L 124.024152 183.354691 
L 124.170692 183.184916 
L 124.317232 183.391257 
L 124.463772 183.362526 
L 124.610312 184.840873 
L 124.756852 182.504511 
L 124.903392 182.043507 
L 125.049932 181.962537 
L 125.343012 180.938664 
L 125.489552 180.677472 
L 125.636092 182.082685 
L 125.929172 180.48419 
L 126.075712 182.107499 
L 126.222252 180.253035 
L 126.368792 181.845001 
L 126.661872 187.888984 
L 126.808412 187.233392 
L 126.954953 187.83544 
L 127.101493 187.139363 
L 127.394573 190.225346 
L 127.687653 186.379294 
L 127.834193 187.168094 
L 127.980733 191.630559 
L 128.127273 191.228324 
L 128.273813 192.462456 
L 128.420353 190.662843 
L 128.566893 190.974968 
L 128.713433 189.624605 
L 128.859973 190.011169 
L 129.006513 187.48283 
L 129.446133 185.615307 
L 129.592673 185.766799 
L 129.739213 187.518091 
L 129.885753 186.12855 
L 130.032293 186.428921 
L 130.178833 186.226497 
L 130.325373 184.76121 
L 130.764993 183.813083 
L 130.911533 181.758807 
L 131.058073 181.784927 
L 131.204613 181.530264 
L 131.497693 180.251729 
L 131.790773 180.216469 
L 132.083853 178.166111 
L 132.230393 178.215738 
L 132.376934 178.990172 
L 132.670014 177.126567 
L 132.963094 178.228797 
L 133.109634 178.116485 
L 133.256174 177.250633 
L 133.402714 177.244103 
L 133.549254 177.745592 
L 133.988874 175.132366 
L 134.135414 176.045232 
L 134.281954 175.524154 
L 134.575034 174.21297 
L 134.721574 174.105881 
L 134.868114 172.362425 
L 135.014654 172.229217 
L 135.161194 174.781063 
L 135.307734 174.07715 
L 135.454274 172.816899 
L 135.600814 172.977532 
L 135.747354 172.621005 
L 135.893894 171.496573 
L 136.040434 172.17959 
L 136.186974 175.880681 
L 136.333514 174.881622 
L 136.480054 172.867831 
L 136.626594 175.491505 
L 136.773134 173.458125 
L 137.212754 183.136595 
L 137.359294 185.391988 
L 137.505834 179.012373 
L 137.652374 179.526922 
L 137.798915 177.453057 
L 138.385075 184.096476 
L 138.531615 184.847403 
L 138.678155 190.523105 
L 138.824695 188.42051 
L 138.971235 190.254078 
L 139.117775 190.204451 
L 139.264315 190.998475 
L 139.410855 186.413249 
L 139.703935 190.63803 
L 139.850475 187.024438 
L 139.997015 186.443286 
L 140.290095 193.281293 
L 140.436635 191.775521 
L 140.583175 192.599582 
L 140.729715 188.531516 
L 140.876255 187.909879 
L 141.022795 188.167153 
L 141.169335 184.823896 
L 141.315875 184.904865 
L 141.608955 184.526137 
L 141.755495 185.089006 
L 141.902035 187.425368 
L 142.048575 187.852417 
L 142.195115 190.248854 
L 142.341655 189.847924 
L 142.488195 190.133929 
L 142.781275 195.86187 
L 143.074355 196.923616 
L 143.220896 196.207949 
L 143.513976 190.698104 
L 143.660516 189.691209 
L 143.807056 189.588038 
L 143.953596 187.42145 
L 144.100136 187.443651 
L 144.246676 187.272571 
L 144.393216 191.399405 
L 144.539756 190.567508 
L 144.686296 188.970319 
L 144.832836 190.784297 
L 145.125916 186.465487 
L 145.272456 184.852627 
L 145.418996 185.005424 
L 145.712076 186.613061 
L 145.858616 186.603919 
L 146.005156 183.43566 
L 146.151696 184.140878 
L 146.298236 183.255438 
L 146.444776 183.44219 
L 146.591316 183.986775 
L 146.737856 183.18361 
L 146.884396 184.062521 
L 147.030936 188.188049 
L 147.324016 189.52274 
L 147.470556 189.505762 
L 147.617096 187.787119 
L 147.763636 187.575553 
L 147.910176 189.995497 
L 148.203256 191.075526 
L 148.349796 193.098459 
L 148.496336 192.646596 
L 148.642877 193.70573 
L 148.789417 191.437277 
L 148.935957 193.483717 
L 149.082497 193.430172 
L 149.375577 188.105773 
L 149.522117 186.223885 
L 149.668657 187.878536 
L 150.254817 183.95282 
L 150.401357 184.057297 
L 150.547897 183.538831 
L 150.694437 183.592375 
L 150.840977 183.470921 
L 150.987517 181.235117 
L 151.134057 181.617764 
L 151.427137 183.570174 
L 151.573677 180.456765 
L 151.720217 181.306945 
L 151.866757 180.583443 
L 152.159837 181.432317 
L 152.306377 180.774113 
L 152.452917 181.976903 
L 152.599457 178.879165 
L 152.745997 178.98103 
L 152.892537 179.230469 
L 153.039077 178.304543 
L 153.185617 178.282342 
L 153.332157 177.701189 
L 153.478697 176.613325 
L 153.625237 177.173582 
L 153.771777 176.862763 
L 153.918318 175.750085 
L 154.064858 178.206596 
L 154.211398 176.604183 
L 154.797558 175.628631 
L 154.944098 176.045232 
L 155.090638 175.871539 
L 155.237178 175.939449 
L 155.383718 175.793182 
L 155.676798 174.019688 
L 155.823338 171.00292 
L 155.969878 170.377365 
L 156.116418 170.716915 
L 156.262958 172.003286 
L 156.409498 171.309821 
L 156.556038 171.985002 
L 156.702578 173.856443 
L 156.849118 174.047113 
L 156.995658 176.581982 
L 157.142198 176.549333 
L 157.288738 174.185545 
L 157.435278 173.788533 
L 157.581818 174.03536 
L 157.728358 176.269857 
L 157.874898 173.968756 
L 158.021438 175.13759 
L 158.167978 175.351767 
L 158.314518 176.293364 
L 158.607598 170.94154 
L 158.754138 170.526245 
L 158.900678 170.733892 
L 159.047218 170.651617 
L 159.633379 168.469358 
L 159.779919 168.321784 
L 159.926459 169.152375 
L 160.072999 168.154621 
L 160.219539 168.018802 
L 160.366079 167.604812 
L 160.659159 166.069003 
L 160.805699 166.339337 
L 161.245319 165.946243 
L 161.538399 166.225718 
L 161.684939 164.367337 
L 161.831479 164.585432 
L 161.978019 163.754842 
L 162.417639 164.644201 
L 162.564179 164.026482 
L 162.710719 162.527239 
L 162.857259 162.814551 
L 163.003799 161.576501 
L 163.150339 161.34404 
L 163.296879 163.054847 
L 163.443419 163.271637 
L 163.589959 162.868095 
L 163.736499 161.889931 
L 163.883039 161.845528 
L 164.176119 160.753746 
L 164.322659 163.783573 
L 164.469199 162.506344 
L 164.615739 159.702448 
L 164.76228 160.16737 
L 165.05536 159.274093 
L 165.34844 157.484928 
L 165.49498 157.966827 
L 165.64152 157.837537 
L 165.9346 156.472809 
L 166.08114 157.035677 
L 166.37422 155.413675 
L 166.52076 155.076737 
L 166.81384 159.727261 
L 166.96038 159.897036 
L 167.25346 157.138848 
L 167.4 159.866999 
L 167.54654 159.591441 
L 167.69308 156.649113 
L 167.98616 159.370734 
L 168.1327 157.844067 
L 168.27924 158.079139 
L 168.42578 161.332286 
L 168.57232 160.134721 
L 168.71886 161.165123 
L 169.01194 166.324971 
L 169.45156 160.905237 
L 169.5981 161.507285 
L 169.74464 161.014938 
L 170.03772 158.891447 
L 170.184261 159.362898 
L 170.477341 157.003028 
L 170.623881 157.320377 
L 170.770421 156.461055 
L 171.063501 156.432324 
L 171.210041 156.052289 
L 171.356581 156.317399 
L 171.796201 158.844432 
L 171.942741 158.811783 
L 172.089281 158.797417 
L 172.235821 158.123542 
L 172.382361 160.022408 
L 172.528901 159.04555 
L 172.821981 155.811993 
L 172.968521 156.090162 
L 173.261601 153.424698 
L 173.554681 152.38646 
L 173.701221 152.698584 
L 173.847761 153.299326 
L 174.140841 156.109752 
L 174.433921 154.648382 
L 174.580461 153.228804 
L 174.727001 155.198192 
L 174.873541 154.340176 
L 175.166621 156.845007 
L 175.313161 156.908999 
L 175.606242 154.999686 
L 176.045862 158.567569 
L 176.485482 156.632136 
L 176.632022 154.790732 
L 176.778562 158.7935 
L 176.925102 159.003759 
L 177.218182 162.499814 
L 177.364722 162.660447 
L 177.511262 163.363054 
L 177.657802 162.130228 
L 177.804342 164.483568 
L 177.950882 164.372561 
L 178.097422 162.277801 
L 178.243962 165.209681 
L 178.537042 164.415658 
L 178.683582 163.519769 
L 178.830122 161.278742 
L 179.269742 164.813976 
L 179.855902 157.99817 
L 180.002442 155.512928 
L 180.148982 155.746695 
L 180.295522 155.571696 
L 180.442062 153.743352 
L 180.588602 154.973566 
L 180.735142 158.148355 
L 180.881682 158.912342 
L 181.028223 158.37951 
L 181.174763 159.535285 
L 181.321303 158.585852 
L 181.467843 159.983229 
L 181.614383 157.20284 
L 181.760923 157.319071 
L 181.907463 154.973566 
L 182.054003 154.814239 
L 182.347083 156.522435 
L 182.493623 160.055057 
L 182.640163 160.606172 
L 182.933243 162.399255 
L 183.079783 166.694558 
L 183.226323 165.873109 
L 183.372863 173.74413 
L 183.519403 173.834242 
L 183.665943 184.271475 
L 183.812483 177.340744 
L 183.959023 184.1017 
L 184.105563 177.326379 
L 184.252103 176.520602 
L 184.398643 173.166896 
L 184.545183 174.698787 
L 184.691723 174.551214 
L 184.984803 183.739949 
L 185.131343 183.702076 
L 185.424423 176.678623 
L 185.570963 179.072447 
L 185.717503 176.783099 
L 185.864043 172.436864 
L 186.010583 172.065972 
L 186.157123 171.286314 
L 186.303664 173.176038 
L 186.596744 178.292789 
L 186.743284 173.933495 
L 186.889824 175.594676 
L 187.036364 179.730651 
L 187.329444 177.296342 
L 187.769064 171.66243 
L 187.915604 173.219134 
L 188.062144 173.480326 
L 188.355224 182.952455 
L 188.501764 182.05526 
L 188.794844 176.968546 
L 188.941384 180.144641 
L 189.087924 178.924874 
L 189.381004 186.913432 
L 189.820624 178.32805 
L 189.967164 179.570018 
L 190.113704 174.420618 
L 190.260244 174.33573 
L 190.406784 172.806451 
L 190.553324 173.275291 
L 190.699864 170.543222 
L 190.846404 173.64096 
L 190.992944 170.438745 
L 191.139484 172.462984 
L 191.286024 171.7434 
L 191.579104 166.676275 
L 191.725645 169.959458 
L 191.872185 168.26824 
L 192.018725 162.706156 
L 192.165265 162.640858 
L 192.458345 171.365977 
L 192.751425 165.767326 
L 192.897965 166.801647 
L 193.044505 165.771244 
L 193.191045 163.838423 
L 193.337585 169.952928 
L 193.484125 168.569917 
L 193.630665 165.414717 
L 193.777205 166.991011 
L 193.923745 166.203517 
L 194.216825 171.646759 
L 194.363365 171.709445 
L 194.509905 174.670056 
L 194.656445 175.3152 
L 194.802985 178.743346 
L 194.949525 179.150805 
L 195.096065 174.726212 
L 195.242605 174.381439 
L 195.389145 167.620484 
L 195.535685 167.931302 
L 195.682225 167.970481 
L 195.828765 166.298852 
L 196.121845 165.78561 
L 196.268385 169.267299 
L 196.414925 166.545679 
L 196.854545 172.209627 
L 197.147626 171.185755 
L 197.294166 173.054584 
L 197.440706 168.359657 
L 197.587246 168.043615 
L 197.880326 165.221435 
L 198.026866 165.208375 
L 198.173406 167.270486 
L 198.319946 165.523112 
L 198.466486 166.230942 
L 198.613026 163.689544 
L 198.759566 163.658201 
L 198.906106 163.16716 
L 199.052646 163.591597 
L 199.199186 163.214174 
L 199.345726 161.727992 
L 199.492266 161.675753 
L 199.638806 161.281354 
L 199.785346 162.118474 
L 199.931886 161.520344 
L 200.224966 158.800029 
L 200.518046 158.604135 
L 200.664586 158.78044 
L 200.811126 157.291646 
L 201.104206 158.561039 
L 201.250746 158.994617 
L 201.397286 159.072975 
L 201.543826 157.547614 
L 201.690366 157.358249 
L 201.836906 154.829911 
L 201.983446 154.904351 
L 202.423066 153.909209 
L 202.569607 155.125058 
L 202.716147 153.932716 
L 202.862687 154.098573 
L 203.009227 155.048006 
L 203.155767 153.113879 
L 203.448847 152.569294 
L 203.595387 153.163506 
L 203.888467 152.10829 
L 204.035007 151.866687 
L 204.181547 151.267252 
L 204.328087 152.116126 
L 204.474627 151.017813 
L 204.767707 152.29243 
L 204.914247 155.031029 
L 205.353867 151.438333 
L 205.500407 151.409601 
L 205.646947 148.162985 
L 205.793487 148.38108 
L 205.940027 147.294521 
L 206.086567 147.089486 
L 206.233107 146.36076 
L 206.526187 147.256648 
L 206.672727 148.576974 
L 206.819267 148.011493 
L 206.965807 145.477931 
L 207.405427 147.205716 
L 207.551967 146.527923 
L 207.698507 145.147523 
L 207.845047 145.886696 
L 207.991588 147.769891 
L 208.138128 147.884815 
L 208.431208 153.042051 
L 208.577748 151.72042 
L 208.724288 149.257379 
L 208.870828 151.517996 
L 209.017368 151.608107 
L 209.163908 148.838166 
L 209.456988 150.648227 
L 209.603528 150.437967 
L 209.750068 151.951575 
L 209.896608 151.294677 
L 210.189688 147.636683 
L 210.336228 147.195268 
L 210.482768 147.907017 
L 210.629308 146.874002 
L 210.775848 147.332394 
L 210.922388 148.734995 
L 211.068928 151.669487 
L 211.215468 151.606801 
L 211.508548 153.565741 
L 211.655088 153.120409 
L 211.801628 153.721151 
L 212.094708 156.689598 
L 212.241248 157.454891 
L 212.534328 161.31792 
L 212.680868 158.605441 
L 212.827408 158.52186 
L 213.120488 157.992946 
L 213.267028 158.366451 
L 213.413569 156.459749 
L 213.560109 158.954133 
L 213.706649 159.344615 
L 213.853189 163.56156 
L 213.999729 163.543276 
L 214.146269 162.587314 
L 214.292809 158.717754 
L 214.439349 158.736037 
L 214.585889 157.342578 
L 214.732429 159.527449 
L 214.878969 157.53586 
L 215.025509 158.750403 
L 215.318589 155.098939 
L 215.465129 154.845582 
L 215.611669 153.121715 
L 215.758209 153.42078 
L 215.904749 157.362167 
L 216.051289 156.120199 
L 216.197829 158.901894 
L 216.344369 158.083057 
L 216.490909 156.534189 
L 216.637449 156.901163 
L 216.783989 152.575824 
L 216.930529 152.138327 
L 217.077069 151.026955 
L 217.223609 151.867993 
L 217.370149 153.552682 
L 217.516689 153.842605 
L 217.663229 155.277855 
L 217.809769 155.280467 
L 217.956309 156.154154 
L 218.102849 153.27843 
L 218.249389 153.688502 
L 218.689009 150.701771 
L 219.12863 155.690538 
L 219.27517 155.745389 
L 219.56825 149.466333 
L 219.71479 149.553832 
L 220.15441 152.204931 
L 220.30095 148.810741 
L 220.44749 148.38761 
L 220.59403 147.457766 
L 220.88711 147.268402 
L 221.03365 146.867472 
L 221.32673 147.120829 
L 221.47327 146.911875 
L 221.76635 145.262447 
L 221.91289 145.266365 
L 222.05943 145.914121 
L 222.20597 145.872331 
L 222.35251 147.362431 
L 222.49905 146.180537 
L 222.79213 146.419528 
L 222.93867 146.264119 
L 223.08521 147.701981 
L 223.23175 146.774749 
L 223.52483 147.184821 
L 223.67137 143.439327 
L 223.81791 142.68187 
L 223.96445 143.836339 
L 224.257531 142.859481 
L 224.550611 139.044772 
L 224.843691 139.887116 
L 224.990231 139.661185 
L 225.283311 139.778721 
L 225.429851 140.204464 
L 225.722931 143.282612 
L 225.869471 141.476469 
L 226.016011 142.322731 
L 226.455631 140.97498 
L 226.602171 139.615476 
L 226.748711 139.676856 
L 226.895251 140.336366 
L 227.188331 143.381865 
L 227.334871 143.345298 
L 227.481411 143.900331 
L 227.921031 139.679468 
L 228.067571 140.145696 
L 228.214111 143.299589 
L 228.360651 143.217314 
L 228.507191 145.921957 
L 228.653731 146.491356 
L 228.800271 145.940241 
L 228.946811 146.074755 
L 229.093351 146.046023 
L 229.239891 144.030927 
L 229.386431 145.779608 
L 229.532972 145.379984 
L 229.679512 143.92645 
L 229.972592 150.571175 
L 230.119132 150.26558 
L 230.265672 150.242073 
L 230.412212 150.960351 
L 230.558752 153.446899 
L 230.705292 153.728986 
L 230.851832 152.873583 
L 230.998372 149.346184 
L 231.144912 149.226036 
L 231.291452 148.805517 
L 231.437992 146.439117 
L 231.584532 146.812622 
L 231.731072 147.772503 
L 232.024152 145.551065 
L 232.170692 145.521027 
L 232.463772 146.713369 
L 232.610312 146.42214 
L 232.903392 145.274201 
L 233.049932 145.211515 
L 233.196472 143.998278 
L 233.343012 143.914697 
L 233.636092 145.860577 
L 233.929172 141.523484 
L 234.075712 142.957428 
L 234.222252 141.928331 
L 234.515332 144.152381 
L 234.954953 147.316723 
L 235.248033 139.482268 
L 235.394573 139.880586 
L 235.541113 138.953354 
L 235.834193 140.170509 
L 235.980733 139.665103 
L 236.127273 138.215487 
L 236.273813 138.224629 
L 236.420353 138.403545 
L 236.713433 138.148883 
L 237.153053 135.546104 
L 237.299593 135.252263 
L 237.446133 135.250958 
L 237.592673 134.187906 
L 237.739213 134.550963 
L 237.885753 133.550598 
L 238.178833 134.821297 
L 238.325373 132.854521 
L 238.471913 135.134727 
L 238.618453 133.100041 
L 238.764993 132.991647 
L 238.911533 133.348174 
L 239.058073 132.232884 
L 239.204613 132.353032 
L 239.497693 131.919453 
L 239.644233 131.782328 
L 239.790773 131.989975 
L 239.937313 130.53383 
L 240.230393 134.258428 
L 240.376934 132.537173 
L 240.523474 136.161212 
L 240.670014 134.974094 
L 240.816554 132.48624 
L 240.963094 132.657321 
L 241.109634 132.197623 
L 241.256174 131.283451 
L 241.402714 129.378055 
L 241.695794 128.794291 
L 241.988874 127.232363 
L 242.135414 127.720792 
L 242.281954 127.454376 
L 242.428494 126.316885 
L 242.575034 126.647293 
L 242.868114 128.261459 
L 243.014654 126.907179 
L 243.161194 128.593173 
L 243.307734 127.144863 
L 243.454274 127.823963 
L 243.600814 126.246363 
L 243.747354 126.366511 
L 243.893894 125.538533 
L 244.040434 126.455316 
L 244.186974 125.400101 
L 244.333514 127.562771 
L 244.480054 126.741322 
L 244.626594 127.616315 
L 245.212754 122.380721 
L 245.359294 122.971015 
L 245.505834 127.736463 
L 245.652374 124.835926 
L 245.945455 129.14037 
L 246.385075 124.286117 
L 246.531615 124.284811 
L 246.678155 123.452914 
L 246.824695 123.834255 
L 247.117775 121.832218 
L 247.264315 123.77418 
L 247.703935 119.229439 
L 247.997015 117.245686 
L 248.143555 118.031874 
L 248.290095 117.113784 
L 248.436635 117.104642 
L 248.729715 113.838436 
L 248.876255 114.923689 
L 249.022795 112.703557 
L 249.169335 112.85766 
L 249.315875 112.48285 
L 249.608955 114.918465 
L 249.755495 115.037308 
L 249.902035 113.671273 
L 250.048575 115.199247 
L 250.195115 114.409141 
L 250.341655 117.500348 
L 250.488195 116.236179 
L 250.634735 117.416767 
L 250.781275 120.352565 
L 251.074355 115.849615 
L 251.220896 115.924055 
L 251.513976 119.879808 
L 251.660516 116.766399 
L 251.807056 118.024038 
L 252.100136 114.74869 
L 252.246676 117.736727 
L 252.393216 123.057208 
L 252.539756 122.503481 
L 252.686296 125.029208 
L 253.125916 119.791002 
L 253.272456 120.694727 
L 253.418996 119.561153 
L 253.565536 119.676078 
L 253.712076 119.502385 
L 254.005156 116.230955 
L 254.151696 114.682087 
L 254.298236 114.642908 
L 254.444776 111.717557 
L 254.737856 110.740699 
L 254.884396 111.555618 
L 255.030936 110.948347 
L 255.324016 109.488283 
L 255.470556 109.039033 
L 255.617096 109.449105 
L 255.763636 110.291449 
L 256.056716 109.545746 
L 256.203256 110.371112 
L 256.496336 110.318874 
L 256.642877 107.558074 
L 256.789417 107.192406 
L 256.935957 107.522813 
L 257.229037 109.642387 
L 257.375577 108.784371 
L 257.668657 109.830445 
L 257.815197 109.21795 
L 257.961737 110.363277 
L 258.108277 113.506722 
L 258.254817 114.223695 
L 258.401357 115.499618 
L 258.547897 114.678169 
L 258.694437 115.92536 
L 258.987517 113.222023 
L 259.134057 114.099628 
L 259.280597 117.534303 
L 259.573677 116.53002 
L 259.720217 117.209119 
L 259.866757 116.321066 
L 260.013297 114.582834 
L 260.159837 114.321642 
L 260.306377 114.309888 
L 260.599457 110.546111 
L 260.745997 109.874848 
L 260.892537 110.620551 
L 261.039077 110.023727 
L 261.332157 107.833632 
L 261.478697 105.122459 
L 261.625237 105.537754 
L 261.918318 108.214972 
L 262.211398 109.399478 
L 262.357938 108.628962 
L 262.651018 110.864765 
L 262.797558 109.108249 
L 262.944098 109.255822 
L 263.090638 111.242188 
L 263.237178 109.695931 
L 263.530258 114.273321 
L 263.676798 114.149255 
L 263.969878 108.037362 
L 264.116418 107.131025 
L 264.262958 108.708625 
L 264.556038 104.126011 
L 264.702578 102.643747 
L 264.849118 102.622851 
L 264.995658 101.315585 
L 265.142198 102.398226 
L 265.728358 99.058886 
L 266.021438 101.071371 
L 266.314518 99.583882 
L 266.461058 100.231638 
L 266.607598 99.249556 
L 266.754138 102.297667 
L 266.900678 99.233885 
L 267.047218 99.066722 
L 267.193758 99.615225 
L 267.486839 96.620659 
L 267.633379 95.633353 
L 268.072999 97.828672 
L 268.366079 94.774031 
L 268.512619 95.07179 
L 268.659159 95.036529 
L 268.805699 94.451459 
L 268.952239 94.636905 
L 269.538399 97.35069 
L 269.684939 94.730935 
L 269.831479 94.30258 
L 269.978019 95.053507 
L 270.271099 98.59527 
L 270.417639 98.618778 
L 270.564179 97.153491 
L 270.710719 97.876992 
L 270.857259 94.004821 
L 271.003799 94.141947 
L 271.589959 89.908024 
L 271.883039 90.03209 
L 272.029579 89.080045 
L 272.176119 91.219208 
L 272.322659 91.298872 
L 272.469199 91.899613 
L 272.615739 90.448692 
L 272.76228 90.499624 
L 272.90882 90.416043 
L 273.05536 89.862315 
L 273.2019 92.888225 
L 273.49498 89.077433 
L 273.64152 89.402618 
L 273.78806 90.341603 
L 273.9346 89.675563 
L 274.08114 89.537131 
L 274.22768 91.678906 
L 274.37422 96.663756 
L 274.52076 97.803859 
L 274.6673 96.375138 
L 274.81384 98.765045 
L 274.96038 96.154431 
L 275.10692 97.669345 
L 275.25346 102.984602 
L 275.4 101.246369 
L 275.54654 101.711291 
L 275.83962 95.784844 
L 275.98616 95.416564 
L 276.1327 92.816397 
L 276.27924 92.880389 
L 276.57232 90.350745 
L 276.71886 90.072575 
L 276.8654 91.641033 
L 277.01194 90.200559 
L 277.15848 90.661563 
L 277.30502 89.177992 
L 277.45156 89.503176 
L 277.5981 89.497953 
L 277.89118 87.631736 
L 278.03772 89.423513 
L 278.184261 85.743317 
L 278.330801 85.756377 
L 278.623881 85.203956 
L 278.770421 85.317574 
L 278.916961 86.56346 
L 279.063501 86.489021 
L 279.210041 89.343849 
L 279.356581 90.024255 
L 279.649661 85.960107 
L 279.796201 87.459349 
L 279.942741 85.99145 
L 280.235821 87.894234 
L 280.382361 86.825958 
L 280.675441 88.99124 
L 280.968521 85.948353 
L 281.261601 83.524491 
L 281.408141 83.802661 
L 281.701221 89.513624 
L 281.847761 88.6099 
L 281.994301 85.969249 
L 282.287381 93.346617 
L 282.873541 86.926517 
L 283.166621 85.006756 
L 283.313161 85.550035 
L 283.459701 85.129516 
L 283.606242 87.115881 
L 284.045862 84.432134 
L 284.192402 84.467394 
L 284.338942 84.799108 
L 284.485482 84.33941 
L 284.632022 86.551707 
L 284.778562 85.181755 
L 284.925102 85.518692 
L 285.071642 85.146494 
L 285.218182 82.773564 
L 285.364722 82.669087 
L 285.511262 83.834004 
L 285.657802 86.142941 
L 285.950882 84.28456 
L 286.097422 85.884361 
L 286.390502 83.316844 
L 286.683582 80.780669 
L 286.830122 81.058839 
L 287.123202 79.25792 
L 287.269742 79.075085 
L 287.416282 79.17042 
L 287.562822 78.695051 
L 287.855902 75.879401 
L 288.002442 75.64041 
L 288.148982 75.703096 
L 288.295522 76.604209 
L 288.442062 78.403822 
L 288.735142 77.402151 
L 288.881682 76.852341 
L 289.028223 74.894707 
L 289.467843 74.159452 
L 289.614383 75.808879 
L 289.760923 74.561687 
L 289.907463 74.863364 
L 290.054003 74.374935 
L 290.200543 74.47027 
L 290.347083 72.760768 
L 290.493623 72.590994 
L 290.640163 71.177945 
L 290.786703 72.195288 
L 290.933243 74.015796 
L 291.079783 72.82476 
L 291.226323 73.889118 
L 291.372863 73.511695 
L 291.519403 72.267116 
L 291.665943 72.765992 
L 291.812483 71.683351 
L 291.959023 74.745828 
L 292.105563 72.120848 
L 292.252103 72.720284 
L 292.545183 70.972909 
L 292.691723 70.846231 
L 292.838263 72.105176 
L 292.984803 72.030737 
L 293.131343 73.200877 
L 293.277883 73.185205 
L 293.424423 78.330688 
L 293.570963 79.051578 
L 293.717503 77.244129 
L 293.864043 79.696722 
L 294.010583 79.692804 
L 294.157123 81.086264 
L 294.450204 77.514463 
L 294.596744 77.928452 
L 294.889824 75.12978 
L 295.036364 75.145452 
L 295.329444 71.679434 
L 295.622524 70.272915 
L 295.769064 70.791381 
L 295.915604 69.548107 
L 296.062144 69.273855 
L 296.208684 69.260795 
L 296.355224 69.70221 
L 296.501764 68.836358 
L 296.794844 69.182438 
L 296.941384 69.583368 
L 297.087924 68.269572 
L 297.234464 69.075349 
L 297.381004 70.786157 
L 297.674084 69.609487 
L 297.820624 71.164885 
L 297.967164 71.349026 
L 298.113704 69.409675 
L 298.260244 69.071431 
L 298.406784 67.792896 
L 298.553324 67.918269 
L 298.846404 71.526636 
L 298.992944 69.49848 
L 299.139484 73.718037 
L 299.286024 71.516188 
L 299.579104 72.895282 
L 299.725645 76.307756 
L 299.872185 76.30645 
L 300.018725 73.468599 
L 300.165265 73.870834 
L 300.311805 77.752148 
L 300.458345 73.339309 
L 300.897965 85.634923 
L 301.044505 85.248359 
L 301.191045 87.234724 
L 301.337585 87.199463 
L 301.777205 76.945064 
L 301.923745 78.79561 
L 302.216825 73.902178 
L 302.363365 74.287436 
L 302.509905 71.228877 
L 302.656445 71.588016 
L 302.802985 69.975156 
L 302.949525 66.919209 
L 303.096065 66.950552 
L 303.242605 67.696255 
L 303.535685 65.200566 
L 303.682225 65.107842 
L 303.828765 64.279864 
L 303.975305 64.094417 
L 304.121845 64.28117 
L 304.561465 63.88024 
L 304.708005 62.511594 
L 304.854545 62.91383 
L 305.001085 62.387528 
L 305.294166 60.211798 
L 305.440706 60.522617 
L 305.587246 59.76516 
L 305.733786 60.453401 
L 305.880326 62.297416 
L 306.173406 59.569266 
L 306.319946 59.884002 
L 306.466486 59.433446 
L 306.613026 61.400222 
L 306.759566 61.464214 
L 306.906106 65.862687 
L 307.052646 64.66251 
L 307.345726 70.630748 
L 307.492266 72.836514 
L 307.931886 60.049859 
L 308.224966 58.545393 
L 308.371506 58.583266 
L 308.664586 57.448387 
L 308.811126 58.783078 
L 308.957666 61.584362 
L 309.104206 61.675779 
L 309.397286 68.935611 
L 309.690366 61.161231 
L 310.129986 66.268841 
L 310.423066 70.233736 
L 310.569607 66.740293 
L 310.716147 66.331527 
L 310.862687 65.081723 
L 311.009227 61.029329 
L 311.155767 62.508982 
L 311.302307 61.820741 
L 311.595387 68.99438 
L 311.741927 66.501302 
L 311.888467 69.930753 
L 312.181547 62.742749 
L 312.328087 63.855427 
L 312.474627 61.111605 
L 312.767707 63.17241 
L 312.914247 60.318887 
L 313.060787 60.326723 
L 313.353867 56.60996 
L 313.500407 56.172464 
L 313.646947 56.258657 
L 313.793487 56.549886 
L 313.940027 54.871727 
L 314.086567 54.955309 
L 314.233107 54.19524 
L 314.379647 54.406806 
L 314.526187 54.814265 
L 314.672727 55.629184 
L 314.819267 53.945802 
L 315.112347 56.408842 
L 315.258887 56.081046 
L 315.405427 59.970196 
L 315.551967 58.903226 
L 315.698507 63.509347 
L 315.845047 64.021284 
L 315.991588 60.66366 
L 316.138128 62.30264 
L 316.284668 58.673377 
L 316.431208 59.575796 
L 316.577748 56.282164 
L 316.724288 57.618161 
L 316.870828 55.159039 
L 317.017368 55.639632 
L 317.163908 57.326932 
L 317.310448 61.303581 
L 317.456988 61.943501 
L 317.603528 61.307499 
L 317.750068 58.013867 
L 318.043148 61.481191 
L 318.189688 60.531758 
L 318.336228 58.747817 
L 318.482768 59.308074 
L 318.775848 57.368723 
L 318.922388 55.947839 
L 319.068928 57.205478 
L 319.215468 56.760146 
L 319.362008 55.351015 
L 319.508548 55.565192 
L 319.655088 58.674683 
L 319.801628 56.164628 
L 319.948168 56.570782 
L 320.241248 54.52826 
L 320.387788 53.906623 
L 320.534328 55.05195 
L 320.680868 54.289269 
L 320.827408 55.322284 
L 320.973948 58.109202 
L 321.267028 54.32453 
L 321.560109 58.809197 
L 321.706649 57.784018 
L 321.853189 54.114271 
L 322.146269 56.331791 
L 322.292809 56.415372 
L 322.439349 53.461291 
L 322.585889 53.248419 
L 322.732429 52.403463 
L 323.025509 52.84096 
L 323.172049 52.191897 
L 323.318589 52.813534 
L 323.465129 55.668363 
L 323.611669 53.150472 
L 323.758209 53.501775 
L 323.904749 55.251762 
L 324.051289 54.684975 
L 324.197829 54.963145 
L 324.344369 54.379381 
L 324.490909 56.760146 
L 324.637449 57.15324 
L 324.783989 58.922816 
L 324.930529 58.809197 
L 325.077069 55.537767 
L 325.223609 55.059786 
L 325.516689 58.250246 
L 325.956309 53.443007 
L 326.102849 54.912212 
L 326.249389 53.232748 
L 326.395929 53.056443 
L 326.689009 55.91519 
L 326.83555 56.022278 
L 326.98209 61.748913 
L 327.12863 61.034553 
L 327.27517 59.165724 
L 327.42171 59.249306 
L 327.56825 60.296686 
L 327.71479 58.653788 
L 327.86133 63.180245 
L 328.00787 62.575586 
L 328.44749 55.048032 
L 328.59403 55.250456 
L 328.74057 53.044689 
L 329.03365 52.523611 
L 329.47327 55.936085 
L 329.76635 60.442953 
L 330.05943 55.097659 
L 330.20597 55.089823 
L 330.64559 57.089248 
L 330.79213 56.237762 
L 331.08521 59.146135 
L 331.23175 55.670975 
L 331.37829 58.297261 
L 331.52483 58.038681 
L 331.67137 58.386066 
L 331.96445 55.898212 
L 332.110991 56.619102 
L 332.257531 58.879719 
L 332.550611 73.078117 
L 332.843691 86.566072 
L 333.136771 70.888022 
L 333.283311 70.730001 
L 333.429851 72.909648 
L 333.576391 80.527313 
L 333.722931 75.955147 
L 333.869471 75.658694 
L 334.016011 79.56482 
L 334.162551 73.271399 
L 334.309091 76.845812 
L 334.602171 74.363181 
L 334.748711 75.410561 
L 335.041791 69.888962 
L 335.188331 70.556308 
L 335.334871 74.757581 
L 335.481411 73.590053 
L 335.627951 76.754394 
L 336.067571 78.243189 
L 336.214111 84.716833 
L 336.360651 84.41385 
L 336.507191 79.72023 
L 336.653731 79.225271 
L 336.946811 70.967685 
L 337.093351 71.898835 
L 337.386431 67.522563 
L 337.679512 66.996261 
L 337.972592 70.0287 
L 338.265672 64.952433 
L 338.412212 64.880605 
L 338.558752 65.258028 
L 338.705292 66.802979 
L 338.998372 59.462177 
L 339.291452 60.671496 
L 339.437992 57.477118 
L 339.584532 57.599878 
L 339.731072 58.912368 
L 339.877612 55.687953 
L 340.024152 54.938331 
L 340.317232 56.226008 
L 340.463772 56.321343 
L 340.610312 59.014233 
L 340.756852 58.604161 
L 340.903392 59.481767 
L 341.196472 66.267535 
L 341.343012 62.330065 
L 341.489552 62.689204 
L 341.636092 58.361253 
L 341.782632 58.666847 
L 341.929172 57.631221 
L 342.075712 57.968159 
L 342.222252 57.635139 
L 342.368792 57.6704 
L 342.515332 57.508461 
L 342.661872 58.775242 
L 342.808412 55.873399 
L 343.101493 62.796293 
L 343.248033 57.302119 
L 343.687653 63.057485 
L 343.834193 62.455438 
L 343.980733 67.660994 
L 344.127273 66.411191 
L 344.420353 59.733817 
L 344.713433 68.551659 
L 345.006513 64.187141 
L 345.153053 60.88045 
L 345.446133 61.897793 
L 345.592673 59.042964 
L 345.885753 63.538078 
L 346.032293 67.623122 
L 346.178833 67.094208 
L 346.325373 70.548472 
L 346.618453 79.459038 
L 346.764993 79.24486 
L 346.911533 77.284614 
L 347.058073 83.605461 
L 347.204613 79.483851 
L 347.351153 84.904891 
L 347.497693 84.774295 
L 347.644233 87.647407 
L 347.790773 86.38585 
L 347.937313 81.434955 
L 348.083853 85.329328 
L 348.230393 81.862004 
L 348.376934 84.56273 
L 348.523474 83.203225 
L 348.670014 77.080884 
L 348.816554 77.193197 
L 348.963094 81.940362 
L 349.256174 80.318359 
L 349.549254 88.416618 
L 349.842334 88.622959 
L 349.988874 91.597936 
L 350.428494 78.833483 
L 350.575034 80.007541 
L 350.721574 80.014071 
L 350.868114 76.393949 
L 351.014654 79.558291 
L 351.161194 78.444307 
L 351.307734 75.584254 
L 351.454274 76.06093 
L 351.600814 78.126958 
L 351.747354 72.103871 
L 352.186974 69.277773 
L 352.333514 69.046618 
L 352.480054 71.985028 
L 352.626594 70.679068 
L 352.773134 70.638583 
L 352.919674 66.378542 
L 353.212754 67.196073 
L 353.652374 62.801517 
L 353.798915 62.537713 
L 353.945455 62.772786 
L 354.091995 64.482288 
L 354.238535 64.582847 
L 354.385075 64.437885 
L 354.678155 60.924852 
L 354.824695 61.474662 
L 354.971235 59.77169 
L 355.117775 60.640153 
L 355.264315 63.377445 
L 355.410855 60.570937 
L 355.557395 63.803188 
L 355.703935 63.060097 
L 355.850475 63.792741 
L 356.143555 58.512744 
L 356.290095 58.46573 
L 356.436635 58.733451 
L 356.729715 56.11239 
L 356.876255 55.903436 
L 357.022795 57.329544 
L 357.169335 57.316485 
L 357.315875 57.811444 
L 357.608955 56.850257 
L 357.902035 60.748548 
L 358.048575 58.642034 
L 358.341655 62.600399 
L 358.488195 62.664391 
L 358.781275 61.611787 
L 358.927815 58.25547 
L 359.074355 60.858248 
L 359.220896 60.903957 
L 359.367436 63.189387 
L 359.513976 60.570937 
L 359.660516 63.11103 
L 359.807056 63.056179 
L 359.953596 64.047403 
L 360.100136 62.443684 
L 360.246676 63.002635 
L 360.539756 57.452305 
L 360.686296 57.509767 
L 360.832836 56.339627 
L 360.979376 56.613878 
L 361.125916 56.304366 
L 361.272456 55.529931 
L 361.418996 56.330485 
L 361.712076 54.632737 
L 361.858616 53.719871 
L 362.005156 54.19524 
L 362.298236 58.951547 
L 362.591316 59.938853 
L 362.737856 59.091284 
L 362.884396 59.975419 
L 363.177476 57.666482 
L 363.324016 58.117038 
L 363.470556 54.477328 
L 363.763636 69.205945 
L 364.203256 56.365746 
L 364.349796 55.831608 
L 364.496336 57.712191 
L 364.642877 56.252127 
L 364.789417 56.491118 
L 364.935957 52.312046 
L 365.082497 51.363919 
L 365.229037 49.407591 
L 365.375577 49.369718 
L 365.522117 47.891371 
L 365.668657 48.153869 
L 365.815197 47.481299 
L 365.961737 47.887453 
L 366.108277 46.680746 
L 366.254817 47.705925 
L 366.401357 46.418248 
L 366.547897 47.273652 
L 366.694437 47.182235 
L 366.840977 47.521784 
L 367.134057 46.605 
L 367.280597 46.965445 
L 367.427137 48.768976 
L 367.573677 47.886147 
L 367.720217 47.826073 
L 367.866757 45.394375 
L 368.013297 45.652955 
L 368.159837 45.541949 
L 368.306377 46.358174 
L 368.452917 45.013035 
L 368.599457 45.240272 
L 368.745997 44.443636 
L 368.892537 46.010788 
L 369.185617 44.852402 
L 369.478697 45.424412 
L 369.625237 44.868073 
L 369.918318 46.752574 
L 370.064858 47.200518 
L 370.211398 45.719559 
L 370.651018 46.962833 
L 370.944098 44.922924 
L 371.090638 44.964714 
L 371.237178 45.599411 
L 371.383718 52.584991 
L 371.530258 48.506478 
L 371.676798 52.688162 
L 371.823338 52.851407 
L 371.969878 50.044899 
L 372.116418 51.102727 
L 372.409498 51.024369 
L 372.702578 46.137467 
L 372.995658 50.19639 
L 373.288738 46.896229 
L 373.435278 49.539493 
L 373.581818 47.301077 
L 373.581818 47.301077 
" style="fill:none;stroke:#1f77b4;stroke-linecap:square;stroke-width:0.4;"/>
   </g>
   <g id="patch_3">
    <path d="M 54 252 
L 54 34.56 
" style="fill:none;stroke:#000000;stroke-linecap:square;stroke-linejoin:miter;stroke-width:0.8;"/>
   </g>
   <g id="patch_4">
    <path d="M 388.8 252 
L 388.8 34.56 
" style="fill:none;stroke:#000000;stroke-linecap:square;stroke-linejoin:miter;stroke-width:0.8;"/>
   </g>
   <g id="patch_5">
    <path d="M 54 252 
L 388.8 252 
" style="fill:none;stroke:#000000;stroke-linecap:square;stroke-linejoin:miter;stroke-width:0.8;"/>
   </g>
   <g id="patch_6">
    <path d="M 54 34.56 
L 388.8 34.56 
" style="fill:none;stroke:#000000;stroke-linecap:square;stroke-linejoin:miter;stroke-width:0.8;"/>
   </g>
  </g>
 </g>
 <defs>
  <clipPath id="p3fa1c88686">
   <rect height="217.44" width="334.8" x="54" y="34.56"/>
  </clipPath>
 </defs>
</svg>
