<?xml version="1.0" encoding="utf-8" standalone="no"?>
<!DOCTYPE svg PUBLIC "-//W3C//DTD SVG 1.1//EN"
  "http://www.w3.org/Graphics/SVG/1.1/DTD/svg11.dtd">
<!-- Created with matplotlib (https://matplotlib.org/) -->
<svg height="288pt" version="1.1" viewBox="0 0 432 288" width="432pt" xmlns="http://www.w3.org/2000/svg" xmlns:xlink="http://www.w3.org/1999/xlink">
 <defs>
  <style type="text/css">
*{stroke-linecap:butt;stroke-linejoin:round;white-space:pre;}
  </style>
 </defs>
 <g id="figure_1">
  <g id="patch_1">
   <path d="M 0 288 
L 432 288 
L 432 0 
L 0 0 
z
" style="fill:#ffffff;"/>
  </g>
  <g id="axes_1">
   <g id="patch_2">
    <path d="M 54 252 
L 388.8 252 
L 388.8 34.56 
L 54 34.56 
z
" style="fill:#ffffff;"/>
   </g>
   <g id="matplotlib.axis_1">
    <g id="xtick_1">
     <g id="line2d_1">
      <defs>
       <path d="M 0 0 
L 0 3.5 
" id="mb4f6914159" style="stroke:#000000;stroke-width:0.8;"/>
      </defs>
      <g>
       <use style="stroke:#000000;stroke-width:0.8;" x="69.218182" xlink:href="#mb4f6914159" y="252"/>
      </g>
     </g>
     <g id="text_1">
      <!-- 0 -->
      <defs>
       <path d="M 31.78125 66.40625 
Q 24.171875 66.40625 20.328125 58.90625 
Q 16.5 51.421875 16.5 36.375 
Q 16.5 21.390625 20.328125 13.890625 
Q 24.171875 6.390625 31.78125 6.390625 
Q 39.453125 6.390625 43.28125 13.890625 
Q 47.125 21.390625 47.125 36.375 
Q 47.125 51.421875 43.28125 58.90625 
Q 39.453125 66.40625 31.78125 66.40625 
z
M 31.78125 74.21875 
Q 44.046875 74.21875 50.515625 64.515625 
Q 56.984375 54.828125 56.984375 36.375 
Q 56.984375 17.96875 50.515625 8.265625 
Q 44.046875 -1.421875 31.78125 -1.421875 
Q 19.53125 -1.421875 13.0625 8.265625 
Q 6.59375 17.96875 6.59375 36.375 
Q 6.59375 54.828125 13.0625 64.515625 
Q 19.53125 74.21875 31.78125 74.21875 
z
" id="DejaVuSans-48"/>
      </defs>
      <g transform="translate(66.036932 266.598437)scale(0.1 -0.1)">
       <use xlink:href="#DejaVuSans-48"/>
      </g>
     </g>
    </g>
    <g id="xtick_2">
     <g id="line2d_2">
      <g>
       <use style="stroke:#000000;stroke-width:0.8;" x="118.309091" xlink:href="#mb4f6914159" y="252"/>
      </g>
     </g>
     <g id="text_2">
      <!-- 50 -->
      <defs>
       <path d="M 10.796875 72.90625 
L 49.515625 72.90625 
L 49.515625 64.59375 
L 19.828125 64.59375 
L 19.828125 46.734375 
Q 21.96875 47.46875 24.109375 47.828125 
Q 26.265625 48.1875 28.421875 48.1875 
Q 40.625 48.1875 47.75 41.5 
Q 54.890625 34.8125 54.890625 23.390625 
Q 54.890625 11.625 47.5625 5.09375 
Q 40.234375 -1.421875 26.90625 -1.421875 
Q 22.3125 -1.421875 17.546875 -0.640625 
Q 12.796875 0.140625 7.71875 1.703125 
L 7.71875 11.625 
Q 12.109375 9.234375 16.796875 8.0625 
Q 21.484375 6.890625 26.703125 6.890625 
Q 35.15625 6.890625 40.078125 11.328125 
Q 45.015625 15.765625 45.015625 23.390625 
Q 45.015625 31 40.078125 35.4375 
Q 35.15625 39.890625 26.703125 39.890625 
Q 22.75 39.890625 18.8125 39.015625 
Q 14.890625 38.140625 10.796875 36.28125 
z
" id="DejaVuSans-53"/>
      </defs>
      <g transform="translate(111.946591 266.598437)scale(0.1 -0.1)">
       <use xlink:href="#DejaVuSans-53"/>
       <use x="63.623047" xlink:href="#DejaVuSans-48"/>
      </g>
     </g>
    </g>
    <g id="xtick_3">
     <g id="line2d_3">
      <g>
       <use style="stroke:#000000;stroke-width:0.8;" x="167.4" xlink:href="#mb4f6914159" y="252"/>
      </g>
     </g>
     <g id="text_3">
      <!-- 100 -->
      <defs>
       <path d="M 12.40625 8.296875 
L 28.515625 8.296875 
L 28.515625 63.921875 
L 10.984375 60.40625 
L 10.984375 69.390625 
L 28.421875 72.90625 
L 38.28125 72.90625 
L 38.28125 8.296875 
L 54.390625 8.296875 
L 54.390625 0 
L 12.40625 0 
z
" id="DejaVuSans-49"/>
      </defs>
      <g transform="translate(157.85625 266.598437)scale(0.1 -0.1)">
       <use xlink:href="#DejaVuSans-49"/>
       <use x="63.623047" xlink:href="#DejaVuSans-48"/>
       <use x="127.246094" xlink:href="#DejaVuSans-48"/>
      </g>
     </g>
    </g>
    <g id="xtick_4">
     <g id="line2d_4">
      <g>
       <use style="stroke:#000000;stroke-width:0.8;" x="216.490909" xlink:href="#mb4f6914159" y="252"/>
      </g>
     </g>
     <g id="text_4">
      <!-- 150 -->
      <g transform="translate(206.947159 266.598437)scale(0.1 -0.1)">
       <use xlink:href="#DejaVuSans-49"/>
       <use x="63.623047" xlink:href="#DejaVuSans-53"/>
       <use x="127.246094" xlink:href="#DejaVuSans-48"/>
      </g>
     </g>
    </g>
    <g id="xtick_5">
     <g id="line2d_5">
      <g>
       <use style="stroke:#000000;stroke-width:0.8;" x="265.581818" xlink:href="#mb4f6914159" y="252"/>
      </g>
     </g>
     <g id="text_5">
      <!-- 200 -->
      <defs>
       <path d="M 19.1875 8.296875 
L 53.609375 8.296875 
L 53.609375 0 
L 7.328125 0 
L 7.328125 8.296875 
Q 12.9375 14.109375 22.625 23.890625 
Q 32.328125 33.6875 34.8125 36.53125 
Q 39.546875 41.84375 41.421875 45.53125 
Q 43.3125 49.21875 43.3125 52.78125 
Q 43.3125 58.59375 39.234375 62.25 
Q 35.15625 65.921875 28.609375 65.921875 
Q 23.96875 65.921875 18.8125 64.3125 
Q 13.671875 62.703125 7.8125 59.421875 
L 7.8125 69.390625 
Q 13.765625 71.78125 18.9375 73 
Q 24.125 74.21875 28.421875 74.21875 
Q 39.75 74.21875 46.484375 68.546875 
Q 53.21875 62.890625 53.21875 53.421875 
Q 53.21875 48.921875 51.53125 44.890625 
Q 49.859375 40.875 45.40625 35.40625 
Q 44.1875 33.984375 37.640625 27.21875 
Q 31.109375 20.453125 19.1875 8.296875 
z
" id="DejaVuSans-50"/>
      </defs>
      <g transform="translate(256.038068 266.598437)scale(0.1 -0.1)">
       <use xlink:href="#DejaVuSans-50"/>
       <use x="63.623047" xlink:href="#DejaVuSans-48"/>
       <use x="127.246094" xlink:href="#DejaVuSans-48"/>
      </g>
     </g>
    </g>
    <g id="xtick_6">
     <g id="line2d_6">
      <g>
       <use style="stroke:#000000;stroke-width:0.8;" x="314.672727" xlink:href="#mb4f6914159" y="252"/>
      </g>
     </g>
     <g id="text_6">
      <!-- 250 -->
      <g transform="translate(305.128977 266.598437)scale(0.1 -0.1)">
       <use xlink:href="#DejaVuSans-50"/>
       <use x="63.623047" xlink:href="#DejaVuSans-53"/>
       <use x="127.246094" xlink:href="#DejaVuSans-48"/>
      </g>
     </g>
    </g>
    <g id="xtick_7">
     <g id="line2d_7">
      <g>
       <use style="stroke:#000000;stroke-width:0.8;" x="363.763636" xlink:href="#mb4f6914159" y="252"/>
      </g>
     </g>
     <g id="text_7">
      <!-- 300 -->
      <defs>
       <path d="M 40.578125 39.3125 
Q 47.65625 37.796875 51.625 33 
Q 55.609375 28.21875 55.609375 21.1875 
Q 55.609375 10.40625 48.1875 4.484375 
Q 40.765625 -1.421875 27.09375 -1.421875 
Q 22.515625 -1.421875 17.65625 -0.515625 
Q 12.796875 0.390625 7.625 2.203125 
L 7.625 11.71875 
Q 11.71875 9.328125 16.59375 8.109375 
Q 21.484375 6.890625 26.8125 6.890625 
Q 36.078125 6.890625 40.9375 10.546875 
Q 45.796875 14.203125 45.796875 21.1875 
Q 45.796875 27.640625 41.28125 31.265625 
Q 36.765625 34.90625 28.71875 34.90625 
L 20.21875 34.90625 
L 20.21875 43.015625 
L 29.109375 43.015625 
Q 36.375 43.015625 40.234375 45.921875 
Q 44.09375 48.828125 44.09375 54.296875 
Q 44.09375 59.90625 40.109375 62.90625 
Q 36.140625 65.921875 28.71875 65.921875 
Q 24.65625 65.921875 20.015625 65.03125 
Q 15.375 64.15625 9.8125 62.3125 
L 9.8125 71.09375 
Q 15.4375 72.65625 20.34375 73.4375 
Q 25.25 74.21875 29.59375 74.21875 
Q 40.828125 74.21875 47.359375 69.109375 
Q 53.90625 64.015625 53.90625 55.328125 
Q 53.90625 49.265625 50.4375 45.09375 
Q 46.96875 40.921875 40.578125 39.3125 
z
" id="DejaVuSans-51"/>
      </defs>
      <g transform="translate(354.219886 266.598437)scale(0.1 -0.1)">
       <use xlink:href="#DejaVuSans-51"/>
       <use x="63.623047" xlink:href="#DejaVuSans-48"/>
       <use x="127.246094" xlink:href="#DejaVuSans-48"/>
      </g>
     </g>
    </g>
   </g>
   <g id="matplotlib.axis_2">
    <g id="ytick_1">
     <g id="line2d_8">
      <defs>
       <path d="M 0 0 
L -3.5 0 
" id="m41d78d3bef" style="stroke:#000000;stroke-width:0.8;"/>
      </defs>
      <g>
       <use style="stroke:#000000;stroke-width:0.8;" x="54" xlink:href="#m41d78d3bef" y="214.058279"/>
      </g>
     </g>
     <g id="text_8">
      <!-- 0.80 -->
      <defs>
       <path d="M 10.6875 12.40625 
L 21 12.40625 
L 21 0 
L 10.6875 0 
z
" id="DejaVuSans-46"/>
       <path d="M 31.78125 34.625 
Q 24.75 34.625 20.71875 30.859375 
Q 16.703125 27.09375 16.703125 20.515625 
Q 16.703125 13.921875 20.71875 10.15625 
Q 24.75 6.390625 31.78125 6.390625 
Q 38.8125 6.390625 42.859375 10.171875 
Q 46.921875 13.96875 46.921875 20.515625 
Q 46.921875 27.09375 42.890625 30.859375 
Q 38.875 34.625 31.78125 34.625 
z
M 21.921875 38.8125 
Q 15.578125 40.375 12.03125 44.71875 
Q 8.5 49.078125 8.5 55.328125 
Q 8.5 64.0625 14.71875 69.140625 
Q 20.953125 74.21875 31.78125 74.21875 
Q 42.671875 74.21875 48.875 69.140625 
Q 55.078125 64.0625 55.078125 55.328125 
Q 55.078125 49.078125 51.53125 44.71875 
Q 48 40.375 41.703125 38.8125 
Q 48.828125 37.15625 52.796875 32.3125 
Q 56.78125 27.484375 56.78125 20.515625 
Q 56.78125 9.90625 50.3125 4.234375 
Q 43.84375 -1.421875 31.78125 -1.421875 
Q 19.734375 -1.421875 13.25 4.234375 
Q 6.78125 9.90625 6.78125 20.515625 
Q 6.78125 27.484375 10.78125 32.3125 
Q 14.796875 37.15625 21.921875 38.8125 
z
M 18.3125 54.390625 
Q 18.3125 48.734375 21.84375 45.5625 
Q 25.390625 42.390625 31.78125 42.390625 
Q 38.140625 42.390625 41.71875 45.5625 
Q 45.3125 48.734375 45.3125 54.390625 
Q 45.3125 60.0625 41.71875 63.234375 
Q 38.140625 66.40625 31.78125 66.40625 
Q 25.390625 66.40625 21.84375 63.234375 
Q 18.3125 60.0625 18.3125 54.390625 
z
" id="DejaVuSans-56"/>
      </defs>
      <g transform="translate(24.734375 217.857498)scale(0.1 -0.1)">
       <use xlink:href="#DejaVuSans-48"/>
       <use x="63.623047" xlink:href="#DejaVuSans-46"/>
       <use x="95.410156" xlink:href="#DejaVuSans-56"/>
       <use x="159.033203" xlink:href="#DejaVuSans-48"/>
      </g>
     </g>
    </g>
    <g id="ytick_2">
     <g id="line2d_9">
      <g>
       <use style="stroke:#000000;stroke-width:0.8;" x="54" xlink:href="#m41d78d3bef" y="171.654619"/>
      </g>
     </g>
     <g id="text_9">
      <!-- 0.85 -->
      <g transform="translate(24.734375 175.453837)scale(0.1 -0.1)">
       <use xlink:href="#DejaVuSans-48"/>
       <use x="63.623047" xlink:href="#DejaVuSans-46"/>
       <use x="95.410156" xlink:href="#DejaVuSans-56"/>
       <use x="159.033203" xlink:href="#DejaVuSans-53"/>
      </g>
     </g>
    </g>
    <g id="ytick_3">
     <g id="line2d_10">
      <g>
       <use style="stroke:#000000;stroke-width:0.8;" x="54" xlink:href="#m41d78d3bef" y="129.250958"/>
      </g>
     </g>
     <g id="text_10">
      <!-- 0.90 -->
      <defs>
       <path d="M 10.984375 1.515625 
L 10.984375 10.5 
Q 14.703125 8.734375 18.5 7.8125 
Q 22.3125 6.890625 25.984375 6.890625 
Q 35.75 6.890625 40.890625 13.453125 
Q 46.046875 20.015625 46.78125 33.40625 
Q 43.953125 29.203125 39.59375 26.953125 
Q 35.25 24.703125 29.984375 24.703125 
Q 19.046875 24.703125 12.671875 31.3125 
Q 6.296875 37.9375 6.296875 49.421875 
Q 6.296875 60.640625 12.9375 67.421875 
Q 19.578125 74.21875 30.609375 74.21875 
Q 43.265625 74.21875 49.921875 64.515625 
Q 56.59375 54.828125 56.59375 36.375 
Q 56.59375 19.140625 48.40625 8.859375 
Q 40.234375 -1.421875 26.421875 -1.421875 
Q 22.703125 -1.421875 18.890625 -0.6875 
Q 15.09375 0.046875 10.984375 1.515625 
z
M 30.609375 32.421875 
Q 37.25 32.421875 41.125 36.953125 
Q 45.015625 41.5 45.015625 49.421875 
Q 45.015625 57.28125 41.125 61.84375 
Q 37.25 66.40625 30.609375 66.40625 
Q 23.96875 66.40625 20.09375 61.84375 
Q 16.21875 57.28125 16.21875 49.421875 
Q 16.21875 41.5 20.09375 36.953125 
Q 23.96875 32.421875 30.609375 32.421875 
z
" id="DejaVuSans-57"/>
      </defs>
      <g transform="translate(24.734375 133.050177)scale(0.1 -0.1)">
       <use xlink:href="#DejaVuSans-48"/>
       <use x="63.623047" xlink:href="#DejaVuSans-46"/>
       <use x="95.410156" xlink:href="#DejaVuSans-57"/>
       <use x="159.033203" xlink:href="#DejaVuSans-48"/>
      </g>
     </g>
    </g>
    <g id="ytick_4">
     <g id="line2d_11">
      <g>
       <use style="stroke:#000000;stroke-width:0.8;" x="54" xlink:href="#m41d78d3bef" y="86.847297"/>
      </g>
     </g>
     <g id="text_11">
      <!-- 0.95 -->
      <g transform="translate(24.734375 90.646516)scale(0.1 -0.1)">
       <use xlink:href="#DejaVuSans-48"/>
       <use x="63.623047" xlink:href="#DejaVuSans-46"/>
       <use x="95.410156" xlink:href="#DejaVuSans-57"/>
       <use x="159.033203" xlink:href="#DejaVuSans-53"/>
      </g>
     </g>
    </g>
    <g id="ytick_5">
     <g id="line2d_12">
      <g>
       <use style="stroke:#000000;stroke-width:0.8;" x="54" xlink:href="#m41d78d3bef" y="44.443636"/>
      </g>
     </g>
     <g id="text_12">
      <!-- 1.00 -->
      <g transform="translate(24.734375 48.242855)scale(0.1 -0.1)">
       <use xlink:href="#DejaVuSans-49"/>
       <use x="63.623047" xlink:href="#DejaVuSans-46"/>
       <use x="95.410156" xlink:href="#DejaVuSans-48"/>
       <use x="159.033203" xlink:href="#DejaVuSans-48"/>
      </g>
     </g>
    </g>
   </g>
   <g id="line2d_13">
    <path clip-path="url(#p7a125b95fc)" d="M 69.218182 106.660786 
L 70.2 105.626147 
L 71.181818 105.152199 
L 72.163636 104.393052 
L 73.145455 103.145197 
L 74.127273 102.597548 
L 75.109091 102.381906 
L 76.090909 102.441402 
L 77.072727 103.339306 
L 78.054545 103.346585 
L 79.036364 103.163041 
L 80.018182 104.291803 
L 81 104.403971 
L 81.981818 104.031424 
L 84.927273 103.796573 
L 85.909091 104.300143 
L 86.890909 103.781712 
L 87.872727 104.228363 
L 88.854545 105.55922 
L 89.836364 104.751597 
L 90.818182 104.497234 
L 91.8 105.863324 
L 92.781818 105.475258 
L 93.763636 104.197276 
L 94.745455 104.387239 
L 95.727273 104.188733 
L 96.709091 107.924261 
L 97.690909 115.143178 
L 98.672727 112.682044 
L 99.654545 154.782369 
L 100.636364 182.239631 
L 101.618182 177.574657 
L 102.6 177.071491 
L 104.563636 141.845944 
L 105.545455 154.228503 
L 106.527273 171.205318 
L 107.509091 154.341581 
L 108.490909 158.525227 
L 109.472727 163.574476 
L 110.454545 160.854934 
L 111.436364 160.692419 
L 112.418182 145.237132 
L 113.4 142.799705 
L 114.381818 148.081682 
L 115.363636 148.292977 
L 116.345455 138.285417 
L 117.327273 155.805686 
L 118.309091 145.160348 
L 119.290909 147.303832 
L 120.272727 157.720031 
L 121.254545 160.23313 
L 122.236364 158.589981 
L 123.218182 166.799711 
L 124.2 178.06291 
L 125.181818 172.382253 
L 126.163636 174.265813 
L 127.145455 172.903212 
L 128.127273 165.224449 
L 129.109091 151.638367 
L 130.090909 151.375158 
L 132.054545 134.937146 
L 133.036364 129.156148 
L 134.018182 125.684233 
L 135 131.770244 
L 135.981818 127.900205 
L 136.963636 121.378865 
L 138.927273 117.941425 
L 139.909091 113.843409 
L 140.890909 116.283314 
L 141.872727 116.516951 
L 142.854545 111.009323 
L 143.836364 108.201725 
L 144.818182 107.984465 
L 146.781818 106.718261 
L 147.763636 105.692114 
L 148.745455 105.365364 
L 149.727273 104.703525 
L 150.709091 104.394367 
L 151.690909 104.608493 
L 152.672727 104.130804 
L 153.654545 104.925587 
L 154.636364 104.163105 
L 155.618182 105.497854 
L 156.6 110.170006 
L 157.581818 109.873333 
L 158.563636 108.780816 
L 159.545455 106.017448 
L 160.527273 105.24071 
L 162.490909 104.493443 
L 163.472727 104.312578 
L 164.454545 103.821494 
L 165.436364 103.127151 
L 166.418182 103.882254 
L 168.381818 104.071358 
L 169.363636 103.892667 
L 170.345455 106.395606 
L 171.327273 106.183502 
L 172.309091 106.364316 
L 173.290909 106.778667 
L 174.272727 109.523786 
L 175.254545 109.068844 
L 176.236364 119.63942 
L 177.218182 115.612628 
L 179.181818 109.051253 
L 180.163636 118.083013 
L 181.145455 116.859169 
L 182.127273 111.177096 
L 183.109091 109.299045 
L 184.090909 105.793465 
L 185.072727 106.651081 
L 186.054545 105.955879 
L 187.036364 107.300586 
L 188.018182 107.494392 
L 189 107.400926 
L 189.981818 113.115806 
L 190.963636 122.47477 
L 191.945455 141.363655 
L 192.927273 142.149138 
L 193.909091 149.122892 
L 194.890909 158.313477 
L 195.872727 161.924907 
L 196.854545 172.345857 
L 197.836364 172.821322 
L 198.818182 180.267003 
L 199.8 184.528697 
L 200.781818 198.166845 
L 201.763636 180.298899 
L 202.745455 175.7053 
L 203.727273 176.0459 
L 204.709091 173.905499 
L 205.690909 178.463108 
L 206.672727 174.510623 
L 208.636364 161.060619 
L 209.618182 174.094755 
L 210.6 179.571649 
L 211.581818 178.124732 
L 212.563636 181.85015 
L 213.545455 189.975817 
L 214.527273 188.089477 
L 216.490909 217.811186 
L 217.472727 192.914591 
L 218.454545 177.630867 
L 219.436364 174.558139 
L 220.418182 174.418219 
L 221.4 169.577991 
L 222.381818 165.903324 
L 223.363636 169.769875 
L 224.345455 169.331412 
L 225.327273 161.407335 
L 226.309091 151.356556 
L 227.290909 151.275172 
L 228.272727 152.143858 
L 230.236364 141.387767 
L 231.218182 136.548702 
L 232.2 136.499062 
L 233.181818 137.937083 
L 234.163636 130.764823 
L 235.145455 130.708157 
L 236.127273 130.416287 
L 237.109091 126.519911 
L 238.090909 120.204559 
L 239.072727 119.952825 
L 240.054545 127.608789 
L 241.036364 116.045783 
L 242.018182 114.138262 
L 243 114.498526 
L 243.981818 114.529664 
L 244.963636 111.745925 
L 245.945455 112.01333 
L 246.927273 110.838164 
L 247.909091 111.259744 
L 248.890909 111.091567 
L 249.872727 110.704361 
L 250.854545 111.539584 
L 251.836364 112.028393 
L 252.818182 112.098454 
L 253.8 113.495581 
L 254.781818 111.94064 
L 255.763636 114.093021 
L 256.745455 110.985869 
L 257.727273 107.026105 
L 258.709091 106.244514 
L 259.690909 106.537952 
L 260.672727 106.497361 
L 261.654545 105.805597 
L 262.636364 105.753026 
L 264.6 105.024613 
L 265.581818 105.571301 
L 266.563636 105.681397 
L 267.545455 105.174087 
L 268.527273 108.392245 
L 269.509091 110.54872 
L 270.490909 110.612311 
L 271.472727 111.270207 
L 272.454545 111.375451 
L 273.436364 110.328023 
L 274.418182 109.649553 
L 275.4 109.199716 
L 276.381818 109.463633 
L 277.363636 110.03317 
L 278.345455 110.826386 
L 279.327273 110.622117 
L 280.309091 110.744699 
L 281.290909 111.977642 
L 282.272727 112.720865 
L 283.254545 112.649895 
L 285.218182 107.01463 
L 286.2 106.142658 
L 287.181818 105.85099 
L 290.127273 104.625781 
L 292.090909 104.830454 
L 293.072727 104.622646 
L 294.054545 103.959594 
L 295.036364 103.847072 
L 296.018182 103.899036 
L 297 104.636497 
L 297.981818 105.917007 
L 298.963636 106.263723 
L 299.945455 105.924741 
L 300.927273 106.894778 
L 301.909091 109.03897 
L 302.890909 107.637041 
L 303.872727 108.132321 
L 304.854545 108.912648 
L 305.836364 109.137086 
L 306.818182 108.940248 
L 307.8 126.284605 
L 309.763636 109.456354 
L 310.745455 112.798964 
L 311.727273 107.240686 
L 312.709091 104.465793 
L 313.690909 105.261486 
L 314.672727 105.372593 
L 315.654545 104.02551 
L 316.636364 102.983996 
L 317.618182 102.379631 
L 318.6 102.548415 
L 319.581818 101.904116 
L 320.563636 101.505839 
L 321.545455 101.409442 
L 322.527273 101.442855 
L 323.509091 101.336399 
L 325.472727 101.258149 
L 326.454545 101.180455 
L 332.345455 101.491079 
L 333.327273 102.093372 
L 335.290909 101.458525 
L 336.272727 101.0926 
L 337.254545 100.974265 
L 340.2 101.002674 
L 342.163636 100.916841 
L 343.145455 101.123587 
L 348.054545 101.032295 
L 349.036364 101.313551 
L 351 101.357326 
L 351.981818 101.154927 
L 353.945455 101.416266 
L 355.909091 101.218417 
L 356.890909 101.220591 
L 357.872727 100.982606 
L 358.854545 101.418036 
L 359.836364 103.766142 
L 360.818182 102.989607 
L 361.8 102.991326 
L 362.781818 102.405411 
L 363.763636 102.800301 
L 364.745455 101.773396 
L 365.727273 102.105655 
L 366.709091 101.881015 
L 367.690909 101.884199 
L 368.672727 101.645052 
L 369.654545 101.550323 
L 370.636364 101.823389 
L 371.618182 101.581006 
L 373.581818 101.729772 
L 373.581818 101.729772 
" style="fill:none;stroke:#008000;stroke-linecap:square;stroke-width:0.4;"/>
   </g>
   <g id="line2d_14">
    <path clip-path="url(#p7a125b95fc)" d="M 69.218182 106.478496 
L 70.2 93.562076 
L 71.181818 103.486866 
L 72.163636 104.358078 
L 73.145455 86.387223 
L 74.127273 85.066354 
L 75.109091 84.872439 
L 76.090909 89.970434 
L 77.072727 99.230574 
L 78.054545 105.975441 
L 79.036364 99.366877 
L 80.018182 106.117364 
L 81 101.008128 
L 81.981818 92.397181 
L 82.963636 98.619321 
L 83.945455 101.311647 
L 84.927273 100.231063 
L 85.909091 102.884044 
L 86.890909 97.382762 
L 87.872727 106.533298 
L 88.854545 113.175586 
L 89.836364 98.218844 
L 90.818182 105.03397 
L 91.8 103.921067 
L 92.781818 106.730726 
L 93.763636 102.149837 
L 94.745455 101.503454 
L 95.727273 104.606093 
L 96.709091 134.970991 
L 97.690909 159.634721 
L 98.672727 123.066301 
L 99.654545 166.728073 
L 100.636364 203.411367 
L 101.618182 162.4363 
L 102.6 184.629723 
L 103.581818 183.949615 
L 104.563636 166.543994 
L 105.545455 199.329668 
L 106.527273 180.515705 
L 107.509091 179.239801 
L 108.490909 193.735644 
L 109.472727 166.649383 
L 110.454545 187.690557 
L 111.436364 181.929317 
L 112.418182 170.96118 
L 113.4 175.468999 
L 114.381818 176.009994 
L 115.363636 166.33111 
L 116.345455 163.883636 
L 117.327273 181.9655 
L 118.309091 163.776842 
L 119.290909 177.395853 
L 120.272727 192.796632 
L 121.254545 196.461343 
L 122.236364 183.102291 
L 123.218182 210.964212 
L 124.2 212.956758 
L 125.181818 192.755882 
L 126.163636 205.578155 
L 127.145455 190.098686 
L 128.127273 157.9608 
L 129.109091 161.968375 
L 130.090909 164.258819 
L 131.072727 154.366348 
L 132.054545 151.08209 
L 133.036364 149.637564 
L 134.018182 148.936379 
L 135 154.247962 
L 135.981818 140.736799 
L 136.963636 135.537631 
L 137.945455 140.771928 
L 138.927273 142.396317 
L 139.909091 134.106454 
L 140.890909 115.237689 
L 141.872727 125.065522 
L 142.854545 127.296949 
L 143.836364 115.402095 
L 144.818182 101.653808 
L 145.8 109.56638 
L 146.781818 115.215206 
L 147.763636 97.546816 
L 148.745455 94.320522 
L 149.727273 98.176337 
L 151.690909 100.904496 
L 152.672727 112.494425 
L 153.654545 106.755668 
L 154.636364 110.532793 
L 155.618182 125.507451 
L 156.6 138.395768 
L 157.581818 125.978187 
L 158.563636 127.523886 
L 159.545455 106.562455 
L 160.527273 107.877704 
L 161.509091 109.659473 
L 162.490909 111.10962 
L 163.472727 105.788552 
L 164.454545 105.940312 
L 165.436364 105.30798 
L 166.418182 110.760081 
L 167.4 103.389206 
L 168.381818 116.384316 
L 169.363636 118.109878 
L 170.345455 94.463499 
L 171.327273 115.068365 
L 172.309091 122.645099 
L 173.290909 120.701734 
L 174.272727 118.110581 
L 175.254545 136.648777 
L 176.236364 131.269746 
L 177.218182 140.011374 
L 178.2 123.340312 
L 179.181818 129.70859 
L 180.163636 150.134295 
L 183.109091 119.845627 
L 184.090909 121.700466 
L 185.072727 126.105707 
L 186.054545 113.818808 
L 187.036364 130.27277 
L 188.018182 141.188213 
L 189 132.117772 
L 189.981818 129.84138 
L 190.963636 167.872241 
L 191.945455 194.385189 
L 192.927273 180.090287 
L 193.909091 179.168488 
L 194.890909 189.789195 
L 195.872727 216.993491 
L 196.854545 186.496856 
L 197.836364 209.828475 
L 198.818182 213.084279 
L 199.8 225.449868 
L 200.781818 231.92494 
L 201.763636 210.616781 
L 202.745455 222.766675 
L 203.727273 207.843657 
L 204.709091 217.667275 
L 205.690909 211.816103 
L 206.672727 194.457907 
L 207.654545 194.941289 
L 208.636364 200.078629 
L 209.618182 194.738943 
L 211.581818 232.71149 
L 212.563636 219.618017 
L 213.545455 220.309366 
L 214.527273 229.312358 
L 215.509091 242.116364 
L 216.490909 239.452141 
L 217.472727 222.140316 
L 218.454545 195.302421 
L 219.436364 200.35545 
L 220.418182 204.788795 
L 221.4 189.208152 
L 222.381818 190.888748 
L 223.363636 186.094272 
L 224.345455 189.161781 
L 225.327273 191.213345 
L 226.309091 183.730758 
L 227.290909 157.807987 
L 228.272727 173.846718 
L 229.254545 169.940316 
L 230.236364 159.186117 
L 231.218182 158.19125 
L 232.2 163.515479 
L 233.181818 157.894756 
L 234.163636 156.312523 
L 235.145455 137.977727 
L 236.127273 150.249169 
L 237.109091 152.334457 
L 238.090909 135.632129 
L 239.072727 128.117223 
L 240.054545 135.074272 
L 241.036364 133.938886 
L 242.018182 130.216563 
L 243 137.574089 
L 243.981818 133.159011 
L 244.963636 132.535111 
L 245.945455 123.430243 
L 246.927273 118.405317 
L 247.909091 124.765165 
L 248.890909 117.435743 
L 249.872727 119.132147 
L 250.854545 130.913181 
L 251.836364 114.482404 
L 252.818182 128.393692 
L 253.8 123.918543 
L 254.781818 127.071769 
L 255.763636 126.751388 
L 256.745455 115.116492 
L 257.727273 107.315632 
L 258.709091 108.46788 
L 259.690909 106.792905 
L 260.672727 103.161918 
L 261.654545 100.936815 
L 262.636364 107.074644 
L 263.618182 101.309188 
L 264.6 103.439441 
L 265.581818 109.408649 
L 267.545455 105.700377 
L 268.527273 111.607756 
L 269.509091 114.498213 
L 270.490909 124.649237 
L 271.472727 121.314744 
L 272.454545 121.590159 
L 273.436364 119.226645 
L 274.418182 118.355433 
L 275.4 113.23355 
L 276.381818 124.43565 
L 277.363636 118.420423 
L 278.345455 128.256687 
L 279.327273 116.177755 
L 280.309091 127.11006 
L 281.290909 126.036853 
L 282.272727 130.302981 
L 283.254545 129.222398 
L 284.236364 131.628067 
L 285.218182 109.85128 
L 286.2 101.712474 
L 287.181818 111.531876 
L 288.163636 106.495709 
L 289.145455 100.730956 
L 290.127273 99.398845 
L 291.109091 97.230651 
L 292.090909 100.676154 
L 293.072727 94.094639 
L 294.054545 92.565803 
L 295.036364 91.797169 
L 296.018182 93.843112 
L 297 104.657733 
L 297.981818 114.218582 
L 298.963636 107.491982 
L 299.945455 109.639098 
L 300.927273 107.067618 
L 301.909091 110.872847 
L 302.890909 113.712717 
L 303.872727 110.537009 
L 304.854545 123.968076 
L 305.836364 108.303123 
L 306.818182 106.885295 
L 307.8 127.608899 
L 308.781818 122.228462 
L 309.763636 102.735797 
L 310.745455 116.946389 
L 311.727273 114.647513 
L 312.709091 100.529664 
L 313.690909 94.245696 
L 314.672727 106.656251 
L 315.654545 88.669939 
L 316.636364 75.753871 
L 317.618182 67.334028 
L 318.6 75.566982 
L 319.581818 69.204324 
L 320.563636 64.83105 
L 321.545455 61.936378 
L 322.527273 66.024049 
L 323.509091 60.830501 
L 324.490909 63.397415 
L 325.472727 57.855383 
L 326.454545 61.059194 
L 327.436364 60.665744 
L 328.418182 61.212359 
L 329.4 59.256348 
L 330.381818 59.892894 
L 331.363636 61.444214 
L 332.345455 64.213825 
L 333.327273 60.414216 
L 334.309091 67.746449 
L 335.290909 57.280664 
L 336.272727 55.38648 
L 337.254545 54.908719 
L 338.236364 57.320009 
L 339.218182 51.530665 
L 340.2 55.524891 
L 341.181818 52.09625 
L 342.163636 54.247581 
L 343.145455 51.959947 
L 344.127273 51.474809 
L 345.109091 53.245336 
L 346.090909 54.7545 
L 347.072727 52.360073 
L 348.054545 57.454555 
L 349.036364 59.123909 
L 350.018182 59.801206 
L 351 53.427307 
L 351.981818 56.8159 
L 352.963636 59.721814 
L 353.945455 60.150394 
L 354.927273 55.024295 
L 355.909091 57.326332 
L 356.890909 57.506195 
L 357.872727 44.443636 
L 358.854545 74.508881 
L 359.836364 66.115737 
L 360.818182 84.11329 
L 361.8 83.388217 
L 362.781818 71.309284 
L 363.763636 74.741438 
L 364.745455 74.763921 
L 365.727273 79.495164 
L 366.709091 66.365156 
L 367.690909 62.432758 
L 368.672727 69.453041 
L 369.654545 68.075964 
L 370.636364 60.302505 
L 371.618182 57.055484 
L 372.6 68.431826 
L 373.581818 63.023286 
L 373.581818 63.023286 
" style="fill:none;stroke:#ff0000;stroke-linecap:square;stroke-width:0.4;"/>
   </g>
   <g id="patch_3">
    <path d="M 54 252 
L 54 34.56 
" style="fill:none;stroke:#000000;stroke-linecap:square;stroke-linejoin:miter;stroke-width:0.8;"/>
   </g>
   <g id="patch_4">
    <path d="M 388.8 252 
L 388.8 34.56 
" style="fill:none;stroke:#000000;stroke-linecap:square;stroke-linejoin:miter;stroke-width:0.8;"/>
   </g>
   <g id="patch_5">
    <path d="M 54 252 
L 388.8 252 
" style="fill:none;stroke:#000000;stroke-linecap:square;stroke-linejoin:miter;stroke-width:0.8;"/>
   </g>
   <g id="patch_6">
    <path d="M 54 34.56 
L 388.8 34.56 
" style="fill:none;stroke:#000000;stroke-linecap:square;stroke-linejoin:miter;stroke-width:0.8;"/>
   </g>
  </g>
 </g>
 <defs>
  <clipPath id="p7a125b95fc">
   <rect height="217.44" width="334.8" x="54" y="34.56"/>
  </clipPath>
 </defs>
</svg>
