<?xml version="1.0" encoding="utf-8" standalone="no"?>
<!DOCTYPE svg PUBLIC "-//W3C//DTD SVG 1.1//EN"
  "http://www.w3.org/Graphics/SVG/1.1/DTD/svg11.dtd">
<!-- Created with matplotlib (https://matplotlib.org/) -->
<svg height="288pt" version="1.1" viewBox="0 0 432 288" width="432pt" xmlns="http://www.w3.org/2000/svg" xmlns:xlink="http://www.w3.org/1999/xlink">
 <defs>
  <style type="text/css">
*{stroke-linecap:butt;stroke-linejoin:round;white-space:pre;}
  </style>
 </defs>
 <g id="figure_1">
  <g id="patch_1">
   <path d="M 0 288 
L 432 288 
L 432 0 
L 0 0 
z
" style="fill:#ffffff;"/>
  </g>
  <g id="axes_1">
   <g id="patch_2">
    <path d="M 54 252 
L 388.8 252 
L 388.8 34.56 
L 54 34.56 
z
" style="fill:#ffffff;"/>
   </g>
   <g id="matplotlib.axis_1">
    <g id="xtick_1">
     <g id="line2d_1">
      <defs>
       <path d="M 0 0 
L 0 3.5 
" id="me8f519e2f2" style="stroke:#000000;stroke-width:0.8;"/>
      </defs>
      <g>
       <use style="stroke:#000000;stroke-width:0.8;" x="69.218182" xlink:href="#me8f519e2f2" y="252"/>
      </g>
     </g>
     <g id="text_1">
      <!-- 0 -->
      <defs>
       <path d="M 31.78125 66.40625 
Q 24.171875 66.40625 20.328125 58.90625 
Q 16.5 51.421875 16.5 36.375 
Q 16.5 21.390625 20.328125 13.890625 
Q 24.171875 6.390625 31.78125 6.390625 
Q 39.453125 6.390625 43.28125 13.890625 
Q 47.125 21.390625 47.125 36.375 
Q 47.125 51.421875 43.28125 58.90625 
Q 39.453125 66.40625 31.78125 66.40625 
z
M 31.78125 74.21875 
Q 44.046875 74.21875 50.515625 64.515625 
Q 56.984375 54.828125 56.984375 36.375 
Q 56.984375 17.96875 50.515625 8.265625 
Q 44.046875 -1.421875 31.78125 -1.421875 
Q 19.53125 -1.421875 13.0625 8.265625 
Q 6.59375 17.96875 6.59375 36.375 
Q 6.59375 54.828125 13.0625 64.515625 
Q 19.53125 74.21875 31.78125 74.21875 
z
" id="DejaVuSans-48"/>
      </defs>
      <g transform="translate(66.036932 266.598437)scale(0.1 -0.1)">
       <use xlink:href="#DejaVuSans-48"/>
      </g>
     </g>
    </g>
    <g id="xtick_2">
     <g id="line2d_2">
      <g>
       <use style="stroke:#000000;stroke-width:0.8;" x="142.41771" xlink:href="#me8f519e2f2" y="252"/>
      </g>
     </g>
     <g id="text_2">
      <!-- 500 -->
      <defs>
       <path d="M 10.796875 72.90625 
L 49.515625 72.90625 
L 49.515625 64.59375 
L 19.828125 64.59375 
L 19.828125 46.734375 
Q 21.96875 47.46875 24.109375 47.828125 
Q 26.265625 48.1875 28.421875 48.1875 
Q 40.625 48.1875 47.75 41.5 
Q 54.890625 34.8125 54.890625 23.390625 
Q 54.890625 11.625 47.5625 5.09375 
Q 40.234375 -1.421875 26.90625 -1.421875 
Q 22.3125 -1.421875 17.546875 -0.640625 
Q 12.796875 0.140625 7.71875 1.703125 
L 7.71875 11.625 
Q 12.109375 9.234375 16.796875 8.0625 
Q 21.484375 6.890625 26.703125 6.890625 
Q 35.15625 6.890625 40.078125 11.328125 
Q 45.015625 15.765625 45.015625 23.390625 
Q 45.015625 31 40.078125 35.4375 
Q 35.15625 39.890625 26.703125 39.890625 
Q 22.75 39.890625 18.8125 39.015625 
Q 14.890625 38.140625 10.796875 36.28125 
z
" id="DejaVuSans-53"/>
      </defs>
      <g transform="translate(132.87396 266.598437)scale(0.1 -0.1)">
       <use xlink:href="#DejaVuSans-53"/>
       <use x="63.623047" xlink:href="#DejaVuSans-48"/>
       <use x="127.246094" xlink:href="#DejaVuSans-48"/>
      </g>
     </g>
    </g>
    <g id="xtick_3">
     <g id="line2d_3">
      <g>
       <use style="stroke:#000000;stroke-width:0.8;" x="215.617237" xlink:href="#me8f519e2f2" y="252"/>
      </g>
     </g>
     <g id="text_3">
      <!-- 1000 -->
      <defs>
       <path d="M 12.40625 8.296875 
L 28.515625 8.296875 
L 28.515625 63.921875 
L 10.984375 60.40625 
L 10.984375 69.390625 
L 28.421875 72.90625 
L 38.28125 72.90625 
L 38.28125 8.296875 
L 54.390625 8.296875 
L 54.390625 0 
L 12.40625 0 
z
" id="DejaVuSans-49"/>
      </defs>
      <g transform="translate(202.892237 266.598437)scale(0.1 -0.1)">
       <use xlink:href="#DejaVuSans-49"/>
       <use x="63.623047" xlink:href="#DejaVuSans-48"/>
       <use x="127.246094" xlink:href="#DejaVuSans-48"/>
       <use x="190.869141" xlink:href="#DejaVuSans-48"/>
      </g>
     </g>
    </g>
    <g id="xtick_4">
     <g id="line2d_4">
      <g>
       <use style="stroke:#000000;stroke-width:0.8;" x="288.816765" xlink:href="#me8f519e2f2" y="252"/>
      </g>
     </g>
     <g id="text_4">
      <!-- 1500 -->
      <g transform="translate(276.091765 266.598437)scale(0.1 -0.1)">
       <use xlink:href="#DejaVuSans-49"/>
       <use x="63.623047" xlink:href="#DejaVuSans-53"/>
       <use x="127.246094" xlink:href="#DejaVuSans-48"/>
       <use x="190.869141" xlink:href="#DejaVuSans-48"/>
      </g>
     </g>
    </g>
    <g id="xtick_5">
     <g id="line2d_5">
      <g>
       <use style="stroke:#000000;stroke-width:0.8;" x="362.016293" xlink:href="#me8f519e2f2" y="252"/>
      </g>
     </g>
     <g id="text_5">
      <!-- 2000 -->
      <defs>
       <path d="M 19.1875 8.296875 
L 53.609375 8.296875 
L 53.609375 0 
L 7.328125 0 
L 7.328125 8.296875 
Q 12.9375 14.109375 22.625 23.890625 
Q 32.328125 33.6875 34.8125 36.53125 
Q 39.546875 41.84375 41.421875 45.53125 
Q 43.3125 49.21875 43.3125 52.78125 
Q 43.3125 58.59375 39.234375 62.25 
Q 35.15625 65.921875 28.609375 65.921875 
Q 23.96875 65.921875 18.8125 64.3125 
Q 13.671875 62.703125 7.8125 59.421875 
L 7.8125 69.390625 
Q 13.765625 71.78125 18.9375 73 
Q 24.125 74.21875 28.421875 74.21875 
Q 39.75 74.21875 46.484375 68.546875 
Q 53.21875 62.890625 53.21875 53.421875 
Q 53.21875 48.921875 51.53125 44.890625 
Q 49.859375 40.875 45.40625 35.40625 
Q 44.1875 33.984375 37.640625 27.21875 
Q 31.109375 20.453125 19.1875 8.296875 
z
" id="DejaVuSans-50"/>
      </defs>
      <g transform="translate(349.291293 266.598437)scale(0.1 -0.1)">
       <use xlink:href="#DejaVuSans-50"/>
       <use x="63.623047" xlink:href="#DejaVuSans-48"/>
       <use x="127.246094" xlink:href="#DejaVuSans-48"/>
       <use x="190.869141" xlink:href="#DejaVuSans-48"/>
      </g>
     </g>
    </g>
   </g>
   <g id="matplotlib.axis_2">
    <g id="ytick_1">
     <g id="line2d_6">
      <defs>
       <path d="M 0 0 
L -3.5 0 
" id="mf53b6a4832" style="stroke:#000000;stroke-width:0.8;"/>
      </defs>
      <g>
       <use style="stroke:#000000;stroke-width:0.8;" x="54" xlink:href="#mf53b6a4832" y="228.115699"/>
      </g>
     </g>
     <g id="text_6">
      <!-- 800 -->
      <defs>
       <path d="M 31.78125 34.625 
Q 24.75 34.625 20.71875 30.859375 
Q 16.703125 27.09375 16.703125 20.515625 
Q 16.703125 13.921875 20.71875 10.15625 
Q 24.75 6.390625 31.78125 6.390625 
Q 38.8125 6.390625 42.859375 10.171875 
Q 46.921875 13.96875 46.921875 20.515625 
Q 46.921875 27.09375 42.890625 30.859375 
Q 38.875 34.625 31.78125 34.625 
z
M 21.921875 38.8125 
Q 15.578125 40.375 12.03125 44.71875 
Q 8.5 49.078125 8.5 55.328125 
Q 8.5 64.0625 14.71875 69.140625 
Q 20.953125 74.21875 31.78125 74.21875 
Q 42.671875 74.21875 48.875 69.140625 
Q 55.078125 64.0625 55.078125 55.328125 
Q 55.078125 49.078125 51.53125 44.71875 
Q 48 40.375 41.703125 38.8125 
Q 48.828125 37.15625 52.796875 32.3125 
Q 56.78125 27.484375 56.78125 20.515625 
Q 56.78125 9.90625 50.3125 4.234375 
Q 43.84375 -1.421875 31.78125 -1.421875 
Q 19.734375 -1.421875 13.25 4.234375 
Q 6.78125 9.90625 6.78125 20.515625 
Q 6.78125 27.484375 10.78125 32.3125 
Q 14.796875 37.15625 21.921875 38.8125 
z
M 18.3125 54.390625 
Q 18.3125 48.734375 21.84375 45.5625 
Q 25.390625 42.390625 31.78125 42.390625 
Q 38.140625 42.390625 41.71875 45.5625 
Q 45.3125 48.734375 45.3125 54.390625 
Q 45.3125 60.0625 41.71875 63.234375 
Q 38.140625 66.40625 31.78125 66.40625 
Q 25.390625 66.40625 21.84375 63.234375 
Q 18.3125 60.0625 18.3125 54.390625 
z
" id="DejaVuSans-56"/>
      </defs>
      <g transform="translate(27.9125 231.914918)scale(0.1 -0.1)">
       <use xlink:href="#DejaVuSans-56"/>
       <use x="63.623047" xlink:href="#DejaVuSans-48"/>
       <use x="127.246094" xlink:href="#DejaVuSans-48"/>
      </g>
     </g>
    </g>
    <g id="ytick_2">
     <g id="line2d_7">
      <g>
       <use style="stroke:#000000;stroke-width:0.8;" x="54" xlink:href="#mf53b6a4832" y="201.913633"/>
      </g>
     </g>
     <g id="text_7">
      <!-- 1000 -->
      <g transform="translate(21.55 205.712851)scale(0.1 -0.1)">
       <use xlink:href="#DejaVuSans-49"/>
       <use x="63.623047" xlink:href="#DejaVuSans-48"/>
       <use x="127.246094" xlink:href="#DejaVuSans-48"/>
       <use x="190.869141" xlink:href="#DejaVuSans-48"/>
      </g>
     </g>
    </g>
    <g id="ytick_3">
     <g id="line2d_8">
      <g>
       <use style="stroke:#000000;stroke-width:0.8;" x="54" xlink:href="#mf53b6a4832" y="175.711567"/>
      </g>
     </g>
     <g id="text_8">
      <!-- 1200 -->
      <g transform="translate(21.55 179.510785)scale(0.1 -0.1)">
       <use xlink:href="#DejaVuSans-49"/>
       <use x="63.623047" xlink:href="#DejaVuSans-50"/>
       <use x="127.246094" xlink:href="#DejaVuSans-48"/>
       <use x="190.869141" xlink:href="#DejaVuSans-48"/>
      </g>
     </g>
    </g>
    <g id="ytick_4">
     <g id="line2d_9">
      <g>
       <use style="stroke:#000000;stroke-width:0.8;" x="54" xlink:href="#mf53b6a4832" y="149.5095"/>
      </g>
     </g>
     <g id="text_9">
      <!-- 1400 -->
      <defs>
       <path d="M 37.796875 64.3125 
L 12.890625 25.390625 
L 37.796875 25.390625 
z
M 35.203125 72.90625 
L 47.609375 72.90625 
L 47.609375 25.390625 
L 58.015625 25.390625 
L 58.015625 17.1875 
L 47.609375 17.1875 
L 47.609375 0 
L 37.796875 0 
L 37.796875 17.1875 
L 4.890625 17.1875 
L 4.890625 26.703125 
z
" id="DejaVuSans-52"/>
      </defs>
      <g transform="translate(21.55 153.308719)scale(0.1 -0.1)">
       <use xlink:href="#DejaVuSans-49"/>
       <use x="63.623047" xlink:href="#DejaVuSans-52"/>
       <use x="127.246094" xlink:href="#DejaVuSans-48"/>
       <use x="190.869141" xlink:href="#DejaVuSans-48"/>
      </g>
     </g>
    </g>
    <g id="ytick_5">
     <g id="line2d_10">
      <g>
       <use style="stroke:#000000;stroke-width:0.8;" x="54" xlink:href="#mf53b6a4832" y="123.307434"/>
      </g>
     </g>
     <g id="text_10">
      <!-- 1600 -->
      <defs>
       <path d="M 33.015625 40.375 
Q 26.375 40.375 22.484375 35.828125 
Q 18.609375 31.296875 18.609375 23.390625 
Q 18.609375 15.53125 22.484375 10.953125 
Q 26.375 6.390625 33.015625 6.390625 
Q 39.65625 6.390625 43.53125 10.953125 
Q 47.40625 15.53125 47.40625 23.390625 
Q 47.40625 31.296875 43.53125 35.828125 
Q 39.65625 40.375 33.015625 40.375 
z
M 52.59375 71.296875 
L 52.59375 62.3125 
Q 48.875 64.0625 45.09375 64.984375 
Q 41.3125 65.921875 37.59375 65.921875 
Q 27.828125 65.921875 22.671875 59.328125 
Q 17.53125 52.734375 16.796875 39.40625 
Q 19.671875 43.65625 24.015625 45.921875 
Q 28.375 48.1875 33.59375 48.1875 
Q 44.578125 48.1875 50.953125 41.515625 
Q 57.328125 34.859375 57.328125 23.390625 
Q 57.328125 12.15625 50.6875 5.359375 
Q 44.046875 -1.421875 33.015625 -1.421875 
Q 20.359375 -1.421875 13.671875 8.265625 
Q 6.984375 17.96875 6.984375 36.375 
Q 6.984375 53.65625 15.1875 63.9375 
Q 23.390625 74.21875 37.203125 74.21875 
Q 40.921875 74.21875 44.703125 73.484375 
Q 48.484375 72.75 52.59375 71.296875 
z
" id="DejaVuSans-54"/>
      </defs>
      <g transform="translate(21.55 127.106653)scale(0.1 -0.1)">
       <use xlink:href="#DejaVuSans-49"/>
       <use x="63.623047" xlink:href="#DejaVuSans-54"/>
       <use x="127.246094" xlink:href="#DejaVuSans-48"/>
       <use x="190.869141" xlink:href="#DejaVuSans-48"/>
      </g>
     </g>
    </g>
    <g id="ytick_6">
     <g id="line2d_11">
      <g>
       <use style="stroke:#000000;stroke-width:0.8;" x="54" xlink:href="#mf53b6a4832" y="97.105368"/>
      </g>
     </g>
     <g id="text_11">
      <!-- 1800 -->
      <g transform="translate(21.55 100.904587)scale(0.1 -0.1)">
       <use xlink:href="#DejaVuSans-49"/>
       <use x="63.623047" xlink:href="#DejaVuSans-56"/>
       <use x="127.246094" xlink:href="#DejaVuSans-48"/>
       <use x="190.869141" xlink:href="#DejaVuSans-48"/>
      </g>
     </g>
    </g>
    <g id="ytick_7">
     <g id="line2d_12">
      <g>
       <use style="stroke:#000000;stroke-width:0.8;" x="54" xlink:href="#mf53b6a4832" y="70.903302"/>
      </g>
     </g>
     <g id="text_12">
      <!-- 2000 -->
      <g transform="translate(21.55 74.70252)scale(0.1 -0.1)">
       <use xlink:href="#DejaVuSans-50"/>
       <use x="63.623047" xlink:href="#DejaVuSans-48"/>
       <use x="127.246094" xlink:href="#DejaVuSans-48"/>
       <use x="190.869141" xlink:href="#DejaVuSans-48"/>
      </g>
     </g>
    </g>
    <g id="ytick_8">
     <g id="line2d_13">
      <g>
       <use style="stroke:#000000;stroke-width:0.8;" x="54" xlink:href="#mf53b6a4832" y="44.701235"/>
      </g>
     </g>
     <g id="text_13">
      <!-- 2200 -->
      <g transform="translate(21.55 48.500454)scale(0.1 -0.1)">
       <use xlink:href="#DejaVuSans-50"/>
       <use x="63.623047" xlink:href="#DejaVuSans-50"/>
       <use x="127.246094" xlink:href="#DejaVuSans-48"/>
       <use x="190.869141" xlink:href="#DejaVuSans-48"/>
      </g>
     </g>
    </g>
   </g>
   <g id="line2d_14">
    <path clip-path="url(#p3dae7d090a)" d="M 69.218182 164.478413 
L 69.364581 167.542745 
L 69.51098 165.373214 
L 69.657379 166.760613 
L 69.803778 165.866386 
L 69.950177 169.666995 
L 70.096576 166.863047 
L 70.535773 171.484682 
L 70.682172 170.439875 
L 70.97497 166.500394 
L 71.12137 166.589481 
L 71.414168 165.512904 
L 71.560567 168.596232 
L 71.706966 167.912358 
L 71.853365 169.495945 
L 71.999764 165.718917 
L 72.146163 165.158521 
L 72.292562 167.369975 
L 72.438961 165.97668 
L 72.58536 167.457097 
L 72.731759 164.369183 
L 72.878158 163.804529 
L 73.024557 166.311084 
L 73.170956 162.348021 
L 73.317355 161.941234 
L 73.463754 164.002027 
L 73.756553 162.20522 
L 73.902952 163.417393 
L 74.049351 165.985196 
L 74.342149 164.009888 
L 74.488548 165.734065 
L 74.634947 163.837036 
L 74.781346 165.643013 
L 75.074144 164.746084 
L 75.220543 162.254267 
L 75.513341 164.599025 
L 75.65974 165.506517 
L 75.806139 170.504561 
L 75.952538 168.614737 
L 76.098937 165.276594 
L 76.245336 170.648754 
L 76.538135 168.856533 
L 76.684534 168.509355 
L 76.830933 176.32928 
L 76.977332 173.592474 
L 77.123731 177.287293 
L 77.27013 170.721055 
L 77.416529 169.296318 
L 77.562928 175.583504 
L 77.709327 173.471945 
L 77.855726 173.779819 
L 78.002125 177.553162 
L 78.148524 177.051393 
L 78.294923 181.040657 
L 78.441322 173.183968 
L 78.73412 188.610598 
L 78.880519 181.892716 
L 79.026919 187.439693 
L 79.173318 204.97993 
L 79.319717 206.459036 
L 79.466116 203.506063 
L 79.612515 204.907874 
L 79.758914 203.227421 
L 79.905313 203.927016 
L 80.051712 207.156093 
L 80.198111 202.100404 
L 80.34451 209.370331 
L 80.490909 203.494518 
L 80.637308 203.930455 
L 80.783707 211.564427 
L 80.930106 212.610463 
L 81.222904 219.882846 
L 81.369303 207.88361 
L 81.515702 208.391275 
L 81.662102 205.247027 
L 81.808501 206.716963 
L 81.9549 207.037938 
L 82.101299 203.374152 
L 82.247698 210.31508 
L 82.394097 208.820579 
L 82.540496 205.3999 
L 82.833294 216.158632 
L 82.979693 216.447837 
L 83.126092 208.719538 
L 83.41889 221.560106 
L 83.565289 215.741282 
L 83.858087 227.843934 
L 84.004486 221.609153 
L 84.150885 224.786153 
L 84.297285 224.055116 
L 84.443684 218.687459 
L 84.590083 217.56601 
L 84.736482 221.243143 
L 84.882881 216.972206 
L 85.02928 216.042688 
L 85.175679 219.386071 
L 85.322078 218.938343 
L 85.468477 214.532466 
L 85.614876 216.676122 
L 85.761275 215.291343 
L 85.907674 215.856653 
L 86.054073 215.052249 
L 86.200472 217.281963 
L 86.346871 211.437593 
L 86.639669 216.798535 
L 86.786068 216.525542 
L 86.932468 218.65446 
L 87.225266 217.578538 
L 87.371665 216.869772 
L 87.664463 217.425583 
L 87.810862 215.773543 
L 87.957261 210.274958 
L 88.10366 210.844853 
L 88.250059 209.661502 
L 88.542857 214.739135 
L 88.689256 217.278115 
L 88.835655 216.084283 
L 88.982054 215.883838 
L 89.128453 221.717482 
L 89.274852 221.57075 
L 89.421251 219.101861 
L 89.567651 224.984225 
L 89.71405 221.811646 
L 89.860449 223.480717 
L 90.006848 223.518383 
L 90.299646 222.286722 
L 90.446045 218.568649 
L 90.885242 223.760506 
L 91.031641 222.048201 
L 91.17804 223.800137 
L 91.470838 220.519147 
L 91.617237 220.350143 
L 91.763636 221.383487 
L 91.910035 220.521439 
L 92.202834 226.036319 
L 92.495632 226.218751 
L 92.642031 231.087259 
L 92.934829 233.239104 
L 93.081228 229.333686 
L 93.374026 235.447528 
L 93.520425 232.785398 
L 93.813223 242.116364 
L 93.959622 239.949453 
L 94.106021 240.991967 
L 94.25242 240.883229 
L 94.398819 241.378366 
L 94.545218 235.735751 
L 94.691617 240.497322 
L 94.984416 231.97469 
L 95.130815 232.323178 
L 95.277214 231.826976 
L 95.570012 227.589611 
L 95.716411 229.620271 
L 95.86281 225.975236 
L 96.009209 228.176209 
L 96.302007 223.84075 
L 96.448406 224.240987 
L 96.594805 227.96299 
L 96.887603 224.084839 
L 97.034002 225.452586 
L 97.180401 224.388783 
L 97.3268 222.321767 
L 97.4732 224.932803 
L 97.619599 224.902016 
L 97.912397 219.658736 
L 98.058796 221.916044 
L 98.205195 220.996024 
L 98.497993 218.645208 
L 98.644392 223.520102 
L 98.790791 220.081736 
L 98.93719 220.937234 
L 99.083589 220.775518 
L 99.229988 218.90076 
L 99.376387 220.270145 
L 99.522786 220.57802 
L 99.669185 217.1652 
L 99.815584 217.273939 
L 99.961983 218.565046 
L 100.254782 213.701779 
L 100.401181 211.640986 
L 100.54758 213.964782 
L 100.693979 211.103516 
L 100.840378 214.298776 
L 100.986777 214.415375 
L 101.133176 214.981995 
L 101.279575 213.783251 
L 101.425974 215.697967 
L 101.572373 212.182959 
L 101.865171 214.984943 
L 102.157969 215.330974 
L 102.304368 213.520084 
L 102.450767 215.782632 
L 102.743566 210.12708 
L 102.889965 211.348096 
L 103.036364 211.103107 
L 103.329162 208.637902 
L 103.475561 209.354856 
L 103.62196 209.479316 
L 103.768359 208.69047 
L 103.914758 209.120184 
L 104.207556 208.853578 
L 104.500354 213.105845 
L 104.793152 211.411227 
L 104.939551 212.278351 
L 105.08595 215.971533 
L 105.525148 211.56672 
L 105.671547 211.744894 
L 105.817946 211.542155 
L 105.964345 212.578447 
L 106.110744 212.609316 
L 106.257143 216.134804 
L 106.403542 212.854633 
L 106.69634 217.034681 
L 106.842739 216.625929 
L 106.989138 217.690388 
L 107.428335 208.972797 
L 107.574734 211.128244 
L 107.721133 211.175408 
L 107.867532 207.411072 
L 108.013932 206.959086 
L 108.160331 208.383824 
L 108.453129 204.417486 
L 108.599528 204.034936 
L 108.745927 204.144002 
L 108.892326 204.729618 
L 109.038725 202.413601 
L 109.185124 202.317963 
L 109.331523 202.366765 
L 109.477922 201.971114 
L 109.624321 200.578392 
L 109.77072 201.31729 
L 109.917119 200.603284 
L 110.209917 201.698858 
L 110.356316 200.197479 
L 110.502715 200.152936 
L 110.649115 201.284865 
L 110.795514 203.298003 
L 110.941913 201.99576 
L 111.088312 202.819487 
L 111.234711 201.390165 
L 111.38111 197.856243 
L 111.527509 197.929609 
L 111.673908 198.287922 
L 111.966706 198.162316 
L 112.113105 198.430887 
L 112.259504 197.237383 
L 112.552302 201.156229 
L 112.698701 200.043952 
L 112.8451 200.936787 
L 112.991499 199.759004 
L 113.284298 195.330609 
L 113.430697 196.692789 
L 113.577096 195.826811 
L 113.869894 191.965363 
L 114.016293 193.755619 
L 114.162692 193.38748 
L 114.309091 193.493517 
L 114.45549 192.576445 
L 114.601889 192.606577 
L 114.894687 195.186825 
L 115.041086 192.750033 
L 115.626682 197.039639 
L 115.773081 196.962998 
L 116.212279 192.409898 
L 116.358678 193.231332 
L 116.505077 192.615584 
L 116.651476 191.352644 
L 116.797875 188.88572 
L 117.090673 190.816157 
L 117.237072 189.101805 
L 117.52987 190.209497 
L 117.676269 188.701568 
L 117.969067 193.344001 
L 118.115466 191.23932 
L 118.261865 193.961715 
L 118.408264 193.002965 
L 118.554664 196.922794 
L 118.701063 195.137123 
L 118.847462 194.805667 
L 118.993861 194.17346 
L 119.14026 191.536223 
L 119.286659 194.082736 
L 119.579457 189.661956 
L 119.725856 188.941399 
L 119.872255 189.704534 
L 120.457851 186.795696 
L 120.60425 188.74775 
L 120.750649 189.054232 
L 120.897048 187.107418 
L 121.043447 188.474184 
L 121.189847 187.821752 
L 121.336246 188.404666 
L 121.482645 187.862283 
L 121.629044 188.263503 
L 121.775443 188.213719 
L 121.921842 188.406304 
L 122.21464 187.428639 
L 122.361039 188.910366 
L 122.507438 188.449292 
L 122.653837 187.610825 
L 122.800236 188.612399 
L 122.946635 187.60362 
L 123.093034 188.065104 
L 123.239433 187.901341 
L 123.385832 188.238365 
L 123.82503 185.843987 
L 123.971429 186.563889 
L 124.264227 185.250183 
L 124.410626 185.457179 
L 124.557025 184.599717 
L 124.703424 186.082754 
L 124.849823 183.91527 
L 124.996222 183.452803 
L 125.142621 184.300768 
L 125.581818 182.729872 
L 125.728217 183.37477 
L 125.874616 182.135412 
L 126.021015 182.069088 
L 126.167414 183.697547 
L 126.313813 181.627911 
L 126.460213 183.224927 
L 126.753011 189.584824 
L 126.89941 187.549906 
L 127.192208 189.028194 
L 127.338607 190.727398 
L 127.485006 190.975662 
L 127.631405 188.968584 
L 127.924203 190.700868 
L 128.217001 189.99374 
L 128.3634 193.648355 
L 128.509799 191.843032 
L 128.656198 192.899631 
L 129.095396 187.896019 
L 129.241795 190.104198 
L 129.534593 187.807587 
L 129.680992 187.959559 
L 129.827391 188.542555 
L 129.97379 187.148605 
L 130.120189 187.118309 
L 130.266588 186.915243 
L 130.412987 187.570294 
L 130.559386 187.229667 
L 130.852184 184.608724 
L 131.144982 184.673246 
L 131.43778 182.233179 
L 131.730579 182.482754 
L 132.023377 180.022707 
L 132.169776 180.820888 
L 132.316175 180.870671 
L 132.608973 179.225837 
L 132.755372 179.368966 
L 132.901771 180.213982 
L 133.04817 179.441267 
L 133.340968 179.253595 
L 133.487367 179.247044 
L 133.633766 178.655287 
L 133.780165 177.519427 
L 133.926564 178.076549 
L 134.072963 177.814528 
L 134.365762 176.396341 
L 134.512161 177.04255 
L 134.65856 176.766118 
L 135.097757 173.79292 
L 135.244156 176.352862 
L 135.536954 174.199789 
L 135.683353 174.892834 
L 135.829752 174.535176 
L 135.976151 174.553435 
L 136.268949 175.446926 
L 136.415348 174.444697 
L 136.561747 174.664303 
L 136.708146 177.2963 
L 136.854545 173.929007 
L 137.293743 183.826838 
L 137.440142 185.075366 
L 137.586541 178.675511 
L 137.73294 181.530063 
L 137.879339 179.449619 
L 138.025738 179.505953 
L 138.464935 186.795532 
L 138.611334 183.257598 
L 138.757733 188.951307 
L 139.050531 192.108246 
L 139.19693 190.696283 
L 139.343329 191.492825 
L 139.489728 188.468534 
L 139.782527 191.379911 
L 139.928926 187.754855 
L 140.075325 189.285629 
L 140.221724 194.257471 
L 140.514522 190.851202 
L 140.660921 192.573497 
L 140.80732 188.492525 
L 140.953719 190.942091 
L 141.100118 191.200181 
L 141.246517 186.168484 
L 141.392916 186.24971 
L 141.539315 186.886748 
L 141.685714 186.694163 
L 141.832113 187.465322 
L 141.978512 189.809097 
L 142.124911 187.345775 
L 142.564109 193.674966 
L 142.710508 192.958012 
L 142.856907 194.337551 
L 143.149705 197.398444 
L 143.296104 198.59424 
L 143.588902 191.707191 
L 143.735301 190.697101 
L 143.8817 192.252194 
L 144.028099 190.078733 
L 144.174498 190.280243 
L 144.320897 190.108619 
L 144.467296 190.996214 
L 144.760094 189.172305 
L 144.906494 190.992038 
L 145.052893 190.495182 
L 145.199292 189.317399 
L 145.345691 186.915898 
L 145.49209 187.06918 
L 145.638489 186.88904 
L 145.784888 187.491688 
L 145.931287 187.332019 
L 146.077686 184.153708 
L 146.224085 186.856452 
L 146.516883 184.934694 
L 146.663282 185.481007 
L 146.809681 184.934366 
L 146.95608 185.816066 
L 147.102479 190.006104 
L 147.248878 190.773824 
L 147.395277 190.323149 
L 147.688076 190.360487 
L 147.834475 190.14825 
L 147.980874 190.226529 
L 148.127273 190.742709 
L 148.420071 195.148914 
L 148.56647 193.214874 
L 148.712869 194.277368 
L 148.859268 192.722603 
L 149.152066 195.318573 
L 149.444864 189.792884 
L 149.591263 187.905026 
L 149.737662 189.748668 
L 150.17686 186.511731 
L 150.323259 186.63488 
L 150.469658 186.739689 
L 150.616057 184.774124 
L 150.762456 184.827839 
L 150.908855 185.821552 
L 151.055254 183.578655 
L 151.201653 183.386971 
L 151.494451 184.890969 
L 151.64085 181.767683 
L 151.787249 182.799553 
L 151.933648 182.073756 
L 152.226446 182.870299 
L 152.372845 181.403147 
L 152.519244 182.609752 
L 152.665643 181.522694 
L 152.812043 181.624882 
L 153.104841 179.584478 
L 153.25124 180.303069 
L 153.397639 179.720073 
L 153.544038 178.038719 
L 153.690437 178.600754 
L 153.836836 178.702614 
L 153.983235 177.586406 
L 154.129634 179.011389 
L 154.276033 177.403892 
L 154.422432 178.537787 
L 155.008028 177.329708 
L 155.447226 176.819095 
L 155.593625 176.858398 
L 155.740024 176.283263 
L 155.886423 172.68531 
L 156.032822 172.05777 
L 156.179221 172.319791 
L 156.32562 173.610243 
L 156.472019 173.646844 
L 156.618418 174.324167 
L 156.911216 174.660864 
L 157.057615 177.042959 
L 157.204014 177.010206 
L 157.496812 176.332228 
L 157.643211 175.250492 
L 157.78961 177.492079 
L 157.936009 175.783704 
L 158.082409 176.956247 
L 158.228808 175.305516 
L 158.375207 176.250101 
L 158.521606 176.343118 
L 158.814404 172.062929 
L 159.107202 172.498538 
L 159.253601 171.905061 
L 159.546399 169.773114 
L 159.692798 170.673482 
L 159.985596 170.368883 
L 160.131995 169.367964 
L 160.278394 170.129462 
L 160.424793 169.714159 
L 160.717591 167.878459 
L 160.863991 168.216138 
L 161.449587 167.864948 
L 161.595986 167.896391 
L 161.742385 165.633597 
L 161.888784 165.852384 
L 162.035183 165.800307 
L 162.181582 166.155345 
L 162.327981 165.392292 
L 162.47438 165.62156 
L 162.620779 166.330981 
L 162.913577 164.272154 
L 163.059976 163.030176 
L 163.206375 163.036399 
L 163.352774 164.752634 
L 163.791972 164.023889 
L 163.938371 163.979346 
L 164.231169 163.302186 
L 164.377568 164.098401 
L 164.670366 161.245815 
L 164.816765 161.712212 
L 164.963164 161.673236 
L 165.109563 161.179327 
L 165.402361 159.218512 
L 165.54876 159.632505 
L 165.695159 159.502805 
L 165.987957 158.0142 
L 166.134357 159.03739 
L 166.280756 157.948695 
L 166.427155 158.554044 
L 166.719953 157.968428 
L 167.012751 160.704579 
L 167.15915 158.899256 
L 167.305549 159.00734 
L 167.451948 161.744146 
L 167.598347 161.002873 
L 167.744746 158.05121 
L 168.037544 160.568574 
L 168.183943 160.441166 
L 168.330342 160.676985 
L 168.476741 161.471562 
L 168.62314 160.270198 
L 168.915939 165.442895 
L 169.062338 165.949577 
L 169.208737 163.743363 
L 169.355136 164.516816 
L 169.501535 162.004037 
L 169.647934 163.677367 
L 169.794333 163.183458 
L 169.940732 160.870307 
L 170.087131 160.327924 
L 170.23353 161.250564 
L 170.526328 158.345574 
L 170.672727 158.663929 
L 171.111924 158.187379 
L 171.404723 157.478941 
L 171.697521 159.381702 
L 171.84392 160.731108 
L 171.990319 159.759994 
L 172.136718 159.745583 
L 172.283117 159.204756 
L 172.429516 161.109646 
L 172.575915 161.206266 
L 172.868713 156.806612 
L 173.015112 157.085664 
L 173.161511 157.053239 
L 173.600708 154.166672 
L 173.747107 154.138177 
L 174.039906 155.677139 
L 174.186305 157.278085 
L 174.332704 156.859507 
L 174.625502 155.069661 
L 174.771901 157.045296 
L 174.9183 155.132218 
L 175.211098 157.696745 
L 175.357497 157.76094 
L 175.503896 157.634843 
L 175.650295 157.252293 
L 175.796694 158.140215 
L 175.943093 160.22328 
L 176.235891 158.776598 
L 176.38229 158.507535 
L 176.528689 157.79877 
L 176.675089 156.202736 
L 176.967887 161.470007 
L 177.114286 163.144319 
L 177.260685 162.486647 
L 177.407084 162.647789 
L 177.553483 165.523466 
L 177.699882 164.286729 
L 177.846281 165.046589 
L 177.99268 164.93523 
L 178.139079 163.946839 
L 178.285478 166.888021 
L 178.578276 165.344719 
L 178.724675 164.986979 
L 178.871074 162.738842 
L 179.163872 164.328652 
L 179.310272 164.823216 
L 179.456671 163.296946 
L 179.60307 164.329962 
L 179.749469 162.922911 
L 180.042267 156.31475 
L 180.188666 158.389626 
L 180.335065 158.214072 
L 180.481464 156.570712 
L 180.627863 157.804829 
L 180.774262 157.46977 
L 180.920661 158.23618 
L 181.213459 161.19161 
L 181.359858 159.501249 
L 181.506257 160.903059 
L 181.652656 157.811625 
L 181.799055 157.928224 
L 182.091854 157.646879 
L 182.384652 159.510338 
L 182.531051 159.063592 
L 182.67745 159.616456 
L 182.823849 164.56054 
L 182.970248 165.260135 
L 183.116647 165.185787 
L 183.263046 164.361732 
L 183.409445 177.008487 
L 183.555844 177.098884 
L 183.702243 179.24123 
L 183.848642 172.288512 
L 183.995041 181.74361 
L 184.14144 174.946794 
L 184.287839 180.6952 
L 184.434238 177.330854 
L 184.580638 178.734221 
L 184.727037 178.586179 
L 184.873436 177.887894 
L 185.166234 183.055596 
L 185.312633 178.007768 
L 185.605431 182.291479 
L 185.898229 171.634279 
L 186.044628 175.724094 
L 186.191027 174.941963 
L 186.337426 175.295772 
L 186.483825 179.285037 
L 186.630224 177.711603 
L 186.776623 173.338478 
L 187.069421 181.369985 
L 187.655018 172.908764 
L 187.947816 175.628539 
L 188.094215 177.673282 
L 188.240614 182.301877 
L 188.533412 178.585769 
L 188.679811 180.142827 
L 188.82621 178.514369 
L 188.972609 180.687503 
L 189.119008 179.463866 
L 189.411806 187.616475 
L 189.851004 177.746566 
L 189.997403 178.992475 
L 190.143802 178.092434 
L 190.290201 178.007277 
L 190.4366 173.560868 
L 190.582999 174.031195 
L 190.729398 172.337232 
L 190.875797 175.444797 
L 191.022196 171.256233 
L 191.168595 173.286893 
L 191.314994 173.656342 
L 191.607792 167.293006 
L 191.754191 170.586606 
L 191.90059 170.294126 
L 192.046989 164.714396 
L 192.193388 166.274974 
L 192.339787 170.439793 
L 192.486187 169.219431 
L 192.632586 166.649009 
L 192.778985 166.511939 
L 193.071783 167.978927 
L 193.218182 166.039974 
L 193.364581 169.491769 
L 193.657379 167.53644 
L 193.803778 169.117735 
L 193.950177 169.155318 
L 194.096576 171.893434 
L 194.242975 170.614773 
L 194.389374 170.677658 
L 194.535773 177.175934 
L 194.682172 177.823126 
L 194.828571 177.825746 
L 194.97497 178.234498 
L 195.12137 173.351415 
L 195.414168 172.438928 
L 195.560567 172.750733 
L 195.853365 167.285473 
L 195.999764 168.029284 
L 196.146163 167.696518 
L 196.292562 170.771904 
L 196.438961 168.041649 
L 196.731759 170.374615 
L 196.878158 173.543018 
L 197.170956 172.300385 
L 197.317355 174.175143 
L 197.463754 168.585096 
L 197.610153 168.268051 
L 197.756553 170.091715 
L 198.049351 166.68389 
L 198.19575 168.752543 
L 198.342149 167.059235 
L 198.488548 167.769311 
L 198.634947 164.994676 
L 198.927745 164.999589 
L 199.074144 165.425372 
L 199.366942 162.935521 
L 199.513341 163.900412 
L 199.65974 163.504761 
L 199.952538 161.98152 
L 200.098937 162.425645 
L 200.538135 160.144673 
L 200.684534 160.451565 
L 200.830933 158.958047 
L 201.123731 160.326368 
L 201.27013 159.861282 
L 201.416529 159.939888 
L 201.562928 158.155527 
L 201.855726 157.699284 
L 202.002125 157.77396 
L 202.148524 156.035043 
L 202.441322 155.448444 
L 202.587721 156.66815 
L 202.73412 155.567418 
L 202.880519 155.733801 
L 203.026919 156.592246 
L 203.173318 154.651983 
L 203.466116 154.381938 
L 203.612515 154.655095 
L 203.905313 153.400835 
L 204.198111 153.078877 
L 204.34451 153.930444 
L 204.490909 153.429166 
L 204.637308 154.013472 
L 204.783707 152.441675 
L 204.930106 155.188962 
L 205.076505 154.609732 
L 205.222904 152.869915 
L 205.369303 154.186569 
L 205.515702 154.157747 
L 205.662102 149.112293 
L 205.808501 149.331081 
L 205.9549 149.842676 
L 206.101299 149.63699 
L 206.247698 148.270634 
L 206.394097 148.824808 
L 206.540496 148.175651 
L 206.686895 149.500166 
L 206.833294 149.053502 
L 206.979693 146.511902 
L 207.272491 148.918889 
L 207.565289 147.408095 
L 207.711688 147.227628 
L 207.858087 147.969146 
L 208.004486 150.375151 
L 208.150885 150.49044 
L 208.297285 149.045396 
L 208.590083 153.29185 
L 208.736482 150.820996 
L 208.882881 152.794994 
L 209.02928 152.885391 
L 209.175679 150.716105 
L 209.468477 151.678049 
L 209.614876 151.467122 
L 209.761275 152.102277 
L 209.907674 151.443295 
L 210.054073 151.792437 
L 210.346871 148.597914 
L 210.49327 149.31192 
L 210.639669 148.445942 
L 210.786068 148.905788 
L 211.078867 153.865594 
L 211.225266 151.433059 
L 211.371665 152.20078 
L 211.518064 155.284599 
L 211.810862 154.358356 
L 212.250059 160.219022 
L 212.396458 159.171594 
L 212.542857 160.434534 
L 212.689256 159.961423 
L 213.128453 159.6149 
L 213.274852 160.461227 
L 213.421251 158.548476 
L 213.71405 159.8029 
L 213.860449 163.796423 
L 214.006848 163.778081 
L 214.153247 164.790463 
L 214.299646 160.908627 
L 214.446045 160.277321 
L 214.592444 158.879441 
L 214.738843 160.624499 
L 214.885242 158.626591 
L 215.031641 158.954772 
L 215.17804 157.091805 
L 215.324439 157.998397 
L 215.470838 157.744237 
L 215.617237 155.822315 
L 215.763636 156.122329 
L 215.910035 156.99453 
L 216.056434 155.748622 
L 216.202834 159.492078 
L 216.495632 158.479696 
L 216.642031 158.847835 
L 216.78843 153.346957 
L 216.934829 152.908072 
L 217.227627 154.427137 
L 217.520425 155.806594 
L 217.666824 155.629075 
L 217.813223 155.631695 
L 217.959622 156.717852 
L 218.106021 153.833005 
L 218.25242 156.181038 
L 218.691617 153.041457 
L 218.838017 152.676921 
L 219.130815 155.394566 
L 219.277214 155.449591 
L 219.423613 156.063702 
L 219.716411 151.784331 
L 219.86281 152.567773 
L 220.009209 151.247844 
L 220.155608 152.576288 
L 220.302007 149.655904 
L 220.448406 149.231431 
L 220.594805 150.01651 
L 220.741204 149.902531 
L 221.034002 148.416301 
L 221.180401 148.740879 
L 221.3268 148.764461 
L 221.4732 148.071171 
L 221.619599 146.763688 
L 221.765998 147.597568 
L 221.912397 147.601499 
L 222.058796 147.822579 
L 222.205195 147.780655 
L 222.351594 148.209387 
L 222.497993 147.023743 
L 222.644392 148.100566 
L 222.790791 148.249918 
L 222.93719 147.409814 
L 223.083589 148.852238 
L 223.229988 147.844605 
L 223.376387 148.059462 
L 223.522786 149.353516 
L 223.815584 144.244768 
L 223.961983 145.4029 
L 224.254782 144.580482 
L 224.401181 141.164715 
L 224.54758 140.407476 
L 224.840378 141.678931 
L 224.986777 141.217201 
L 225.279575 141.316769 
L 225.425974 141.743863 
L 225.718772 144.350887 
L 225.865171 142.858351 
L 226.01157 143.707298 
L 226.157969 142.828219 
L 226.304368 142.663146 
L 226.450767 143.133146 
L 226.597166 141.769328 
L 226.889965 142.880705 
L 227.036364 142.11626 
L 227.475561 144.804837 
L 227.62196 144.695444 
L 227.768359 142.757801 
L 227.914758 142.586259 
L 228.061157 143.053966 
L 228.353955 142.686155 
L 228.500354 147.092605 
L 228.646753 147.66381 
L 228.793152 147.006466 
L 228.939551 147.141407 
L 229.08595 147.548931 
L 229.232349 145.527441 
L 229.378749 147.104806 
L 229.525148 146.703914 
L 229.671547 146.651346 
L 229.817946 151.087356 
L 229.964345 149.373086 
L 230.110744 149.066522 
L 230.257143 152.909218 
L 230.403542 153.629775 
L 230.549941 153.053002 
L 230.69634 153.335985 
L 230.842739 153.045633 
L 230.989138 149.507044 
L 231.135537 152.408595 
L 231.281936 151.986742 
L 231.428335 148.124475 
L 231.721133 149.074955 
L 231.867532 147.635152 
L 232.160331 147.41137 
L 232.30673 147.499802 
L 232.453129 147.815537 
L 232.745927 146.856132 
L 232.892326 147.486946 
L 233.038725 147.424061 
L 233.185124 146.074983 
L 233.477922 145.840474 
L 233.624321 146.609505 
L 233.917119 142.713257 
L 234.063518 145.034761 
L 234.209917 144.002399 
L 234.502715 146.095699 
L 234.649115 145.421978 
L 234.941913 145.91212 
L 235.088312 142.799315 
L 235.38111 144.190645 
L 235.527509 140.793383 
L 235.673908 141.39341 
L 235.820307 141.457278 
L 235.966706 140.950268 
L 236.113105 139.893751 
L 236.259504 139.902922 
L 236.405903 140.072581 
L 236.552302 139.855103 
L 236.8451 138.056741 
L 236.991499 138.762559 
L 237.430697 136.453666 
L 237.577096 136.215882 
L 237.723495 136.580091 
L 237.869894 135.151014 
L 238.162692 136.365152 
L 238.309091 134.392136 
L 238.45549 136.009459 
L 238.601889 133.968318 
L 238.894687 135.100902 
L 239.041086 133.692296 
L 239.333884 133.933355 
L 239.480283 133.815445 
L 239.626682 133.05231 
L 239.773081 133.260616 
L 239.919481 131.955754 
L 240.212279 136.298582 
L 240.358678 134.571866 
L 240.505077 136.239628 
L 240.797875 133.710719 
L 241.090673 133.98322 
L 241.237072 133.066148 
L 241.383471 130.50899 
L 241.52987 130.290203 
L 241.676269 131.078885 
L 241.969067 128.594847 
L 242.261865 129.348812 
L 242.408264 128.207712 
L 242.554664 128.288856 
L 242.701063 129.415545 
L 242.847462 129.262591 
L 242.993861 127.904013 
L 243.14026 129.626636 
L 243.286659 128.173731 
L 243.433058 129.550322 
L 243.579457 127.967717 
L 243.725856 127.727886 
L 243.872255 126.897281 
L 244.018654 128.080304 
L 244.165053 127.021741 
L 244.311452 128.958483 
L 244.457851 128.134428 
L 244.60425 128.635215 
L 244.897048 126.133409 
L 245.043447 123.628491 
L 245.336246 125.528469 
L 245.482645 129.224761 
L 245.629044 126.315022 
L 245.921842 128.725939 
L 246.21464 126.566234 
L 246.361039 127.398477 
L 246.507438 127.397167 
L 246.653837 124.424625 
L 246.800236 124.807175 
L 247.093034 123.982137 
L 247.239433 123.629965 
L 247.385832 121.679221 
L 247.532231 122.729597 
L 247.67863 122.326085 
L 247.971429 118.667703 
L 248.117828 119.757054 
L 248.410626 117.631411 
L 248.557025 115.46057 
L 248.849823 117.406401 
L 248.996222 114.115913 
L 249.142621 114.270505 
L 249.28902 113.446123 
L 249.435419 115.255375 
L 249.728217 115.76869 
L 249.874616 115.334391 
L 250.021015 116.867212 
L 250.167414 116.128395 
L 250.313813 119.22941 
L 250.460213 116.44282 
L 250.606612 117.627154 
L 250.753011 119.737239 
L 250.89941 117.947638 
L 251.045809 118.951832 
L 251.192208 119.026508 
L 251.338607 118.641255 
L 251.485006 120.424306 
L 251.631405 118.042211 
L 251.777804 119.30384 
L 251.924203 119.240136 
L 252.217001 116.286836 
L 252.3634 121.624197 
L 252.509799 122.778152 
L 252.656198 125.311892 
L 252.802597 125.22477 
L 253.095396 120.81529 
L 253.241795 121.721882 
L 253.388194 121.194237 
L 253.534593 121.309527 
L 253.827391 117.251727 
L 253.97379 119.546046 
L 254.120189 117.992263 
L 254.412987 112.022777 
L 254.559386 113.972211 
L 254.705785 113.669577 
L 254.998583 111.828555 
L 255.144982 112.019502 
L 255.291381 111.663154 
L 255.43778 110.892813 
L 255.584179 111.304186 
L 255.730579 111.137475 
L 255.876978 110.57282 
L 256.023377 110.791526 
L 256.169776 111.619511 
L 256.462574 111.704013 
L 256.608973 109.115576 
L 256.755372 108.748747 
L 256.901771 108.906942 
L 257.194569 111.194792 
L 257.340968 110.334054 
L 257.633766 111.009412 
L 257.926564 113.363013 
L 258.072963 112.630338 
L 258.219362 113.349584 
L 258.365762 116.899555 
L 258.512161 116.0755 
L 258.65856 117.12653 
L 258.804959 115.271424 
L 259.097757 116.98463 
L 259.244156 116.855257 
L 259.390555 116.268331 
L 259.683353 118.037544 
L 259.829752 118.24716 
L 260.12255 114.474799 
L 260.268949 114.463009 
L 260.415348 115.012269 
L 260.708146 110.978297 
L 261.000945 111.989042 
L 261.293743 108.603817 
L 261.440142 105.884043 
L 261.879339 109.69194 
L 262.025738 110.271005 
L 262.172137 110.394483 
L 262.318536 109.621522 
L 262.611334 112.006401 
L 262.757733 110.764423 
L 262.904132 110.912465 
L 263.050531 113.055466 
L 263.19693 111.504304 
L 263.343329 111.568827 
L 263.489728 114.27681 
L 263.636128 113.434332 
L 263.782527 108.696998 
L 263.928926 111.812424 
L 264.075325 110.903212 
L 264.368123 105.27116 
L 264.514522 107.401715 
L 264.953719 102.800305 
L 265.100118 103.819893 
L 265.246517 103.074444 
L 265.392916 101.703012 
L 265.685714 100.874699 
L 265.832113 102.006628 
L 265.978512 102.066729 
L 266.124911 101.398576 
L 266.271311 101.282632 
L 266.41771 101.932444 
L 266.564109 99.990297 
L 266.710508 103.048078 
L 266.856907 100.948638 
L 267.003306 100.780945 
L 267.149705 99.760947 
L 267.296104 97.886189 
L 267.442503 99.60832 
L 267.735301 97.927949 
L 268.028099 98.795565 
L 268.320897 96.109362 
L 268.613695 96.732971 
L 268.760094 96.146045 
L 269.052893 97.323254 
L 269.199292 96.295151 
L 269.345691 96.601715 
L 269.49209 97.860806 
L 269.638489 95.232739 
L 270.077686 98.775176 
L 270.224085 99.655566 
L 270.370484 99.734827 
L 270.663282 97.553669 
L 270.809681 93.669213 
L 270.95608 97.174721 
L 271.102479 96.032311 
L 271.248878 92.610485 
L 271.395277 91.9122 
L 271.688076 92.35829 
L 271.834475 92.154242 
L 271.980874 91.199176 
L 272.127273 91.694723 
L 272.273672 91.774639 
L 272.420071 92.905832 
L 272.56647 91.450307 
L 272.712869 92.166606 
L 272.859268 92.082759 
L 273.005667 90.404189 
L 273.152066 93.439699 
L 273.444864 90.914475 
L 273.591263 90.685944 
L 273.737662 91.627908 
L 274.03046 90.879839 
L 274.323259 98.856403 
L 274.616057 95.204162 
L 274.762456 100.510981 
L 275.055254 96.804372 
L 275.201653 102.136492 
L 275.348052 100.956089 
L 275.64085 102.19905 
L 276.080047 93.284288 
L 276.226446 95.393882 
L 276.665643 91.678838 
L 276.812043 92.600823 
L 276.958442 91.155779 
L 277.104841 91.667538 
L 277.25124 90.179261 
L 277.397639 90.993163 
L 277.544038 90.987922 
L 277.836836 88.833867 
L 277.983235 90.656548 
L 278.129634 86.964677 
L 278.276033 87.19853 
L 278.568831 86.535618 
L 278.71523 86.649597 
L 278.861629 88.713992 
L 279.008028 88.639317 
L 279.154427 88.71301 
L 279.300826 89.395574 
L 279.447226 88.930569 
L 279.593625 87.17241 
L 279.740024 88.838534 
L 279.886423 87.365978 
L 280.032822 87.659851 
L 280.179221 88.849424 
L 280.32562 87.436805 
L 280.472019 89.1478 
L 280.618418 88.936874 
L 280.764817 87.812805 
L 280.911216 88.902156 
L 281.204014 86.367106 
L 281.350413 86.646158 
L 281.496812 85.450034 
L 281.78961 91.215143 
L 281.936009 88.566114 
L 282.082409 89.757981 
L 282.228808 92.036251 
L 282.521606 89.178833 
L 282.668005 90.714602 
L 282.814404 90.381836 
L 283.107202 86.218246 
L 283.253601 87.122217 
L 283.4 86.700364 
L 283.546399 87.264363 
L 283.692798 86.474371 
L 283.839197 87.359018 
L 284.131995 86.103612 
L 284.278394 86.436378 
L 284.424793 84.845585 
L 284.571192 87.0649 
L 284.717591 85.909552 
L 284.863991 86.247559 
L 285.01039 87.135154 
L 285.156789 84.754696 
L 285.303188 85.227398 
L 285.449587 86.39601 
L 285.742385 84.783273 
L 285.888784 84.952522 
L 286.035183 86.557399 
L 286.327981 85.317386 
L 286.620779 81.712391 
L 286.767178 83.274034 
L 287.059976 80.589141 
L 287.206375 80.405727 
L 287.352774 80.774848 
L 287.499174 80.297971 
L 287.791972 76.741368 
L 287.938371 77.766523 
L 288.231169 77.906377 
L 288.377568 79.711699 
L 288.523967 78.679338 
L 288.670366 78.467101 
L 288.963164 75.381644 
L 289.109563 77.083796 
L 289.255962 76.639671 
L 289.402361 75.505776 
L 289.54876 77.160437 
L 289.695159 75.552613 
L 289.841558 75.855247 
L 289.987957 75.021448 
L 290.134357 75.117085 
L 290.280756 75.079747 
L 290.427155 74.909434 
L 290.573554 73.2899 
L 290.719953 74.310471 
L 290.866352 74.409056 
L 291.012751 73.214242 
L 291.15915 74.450652 
L 291.305549 74.072032 
L 291.451948 74.161119 
L 291.598347 74.661579 
L 291.744746 72.640335 
L 291.891145 75.712527 
L 292.037544 73.324536 
L 292.183943 73.925874 
L 292.476741 72.394772 
L 292.62314 72.197274 
L 293.062338 75.310899 
L 293.208737 72.272441 
L 293.501535 80.585702 
L 293.647934 78.772519 
L 293.794333 80.05249 
L 293.940732 80.04856 
L 294.087131 80.982745 
L 294.23353 78.097898 
L 294.379929 79.935973 
L 294.526328 80.351275 
L 294.819126 75.859422 
L 294.965525 77.242564 
L 295.404723 71.943196 
L 295.697521 72.803606 
L 295.84392 71.05511 
L 296.136718 70.613278 
L 296.283117 71.056092 
L 296.429516 70.123545 
L 296.868713 70.673133 
L 297.015112 70.108233 
L 297.30791 71.217235 
L 297.454309 70.26741 
L 297.600708 70.954723 
L 297.747107 72.515056 
L 297.893506 72.420401 
L 298.039906 70.474898 
L 298.186305 70.287962 
L 298.332704 69.005371 
L 298.479103 68.901873 
L 298.771901 73.388322 
L 298.9183 71.353732 
L 299.064699 73.575012 
L 299.211098 71.366178 
L 299.357497 74.831483 
L 299.503896 75.55335 
L 299.650295 74.947754 
L 299.796694 74.946444 
L 300.089492 75.970044 
L 300.235891 77.401987 
L 300.38229 72.975148 
L 300.675089 84.134281 
L 300.967887 82.304721 
L 301.114286 85.403934 
L 301.260685 85.368562 
L 301.407084 87.368107 
L 301.553483 85.108179 
L 301.699882 76.703538 
L 301.846281 78.559955 
L 301.99268 78.338875 
L 302.285478 74.582809 
L 302.431877 71.514547 
L 302.578276 73.792489 
L 302.724675 72.174511 
L 302.871074 68.278264 
L 303.017473 68.309706 
L 303.163872 69.069566 
L 303.456671 65.971418 
L 303.60307 65.8784 
L 303.749469 66.335954 
L 303.895868 66.149919 
L 304.042267 65.419864 
L 304.188666 65.278373 
L 304.335065 65.568888 
L 304.481464 65.372373 
L 304.627863 63.331969 
L 304.920661 64.22677 
L 305.213459 61.448941 
L 305.359858 61.760746 
L 305.506257 61.191178 
L 305.799055 62.640644 
L 305.945455 60.923098 
L 306.238253 61.919759 
L 306.384652 61.849096 
L 306.531051 63.822111 
L 306.67745 60.074888 
L 307.116647 71.524618 
L 307.263046 68.25198 
L 307.409445 70.464745 
L 307.702243 59.307004 
L 307.848642 65.037068 
L 307.995041 64.003397 
L 308.14144 59.568697 
L 308.287839 59.60669 
L 308.580638 59.244774 
L 308.873436 64.031728 
L 309.019835 59.716248 
L 309.312633 67.23272 
L 309.459032 64.181489 
L 309.605431 64.326583 
L 309.898229 67.255565 
L 310.044628 67.940749 
L 310.191027 66.262834 
L 310.337426 68.699626 
L 310.483825 66.31401 
L 310.630224 65.903947 
L 310.776623 67.896287 
L 310.923022 63.831036 
L 311.069421 65.290164 
L 311.36222 63.382981 
L 311.508619 66.971354 
L 311.655018 66.16081 
L 311.801417 69.601141 
L 311.947816 68.692257 
L 312.094215 64.869375 
L 312.240614 64.675971 
L 312.387013 61.923444 
L 312.679811 64.313728 
L 312.82621 60.135972 
L 312.972609 60.143833 
L 313.119008 60.753686 
L 313.265407 59.638788 
L 313.411806 57.390323 
L 313.558205 57.47679 
L 313.704604 57.834775 
L 313.851004 56.151293 
L 313.997403 56.161282 
L 314.143802 55.398802 
L 314.4366 56.158662 
L 314.582999 57.252844 
L 314.729398 55.564121 
L 314.875797 55.58017 
L 315.168595 58.09 
L 315.314994 61.991488 
L 315.461393 57.815206 
L 315.754191 64.49878 
L 315.90059 61.130504 
L 316.046989 64.220055 
L 316.339787 59.407554 
L 316.486187 56.103474 
L 316.632586 59.839889 
L 316.778985 57.372964 
L 317.071783 60.551275 
L 317.218182 59.035158 
L 317.364581 59.677108 
L 317.51098 62.703856 
L 317.657379 59.399776 
L 317.950177 62.179487 
L 318.242975 59.181316 
L 318.389374 61.256847 
L 318.535773 60.52712 
L 318.828571 57.073687 
L 318.97497 58.492529 
L 319.267769 57.507823 
L 319.414168 57.72268 
L 319.560567 58.503501 
L 319.706966 55.985483 
L 319.853365 56.874224 
L 319.999764 55.476344 
L 320.146163 56.657074 
L 320.292562 56.033465 
L 320.438961 56.655273 
L 320.731759 55.018627 
L 320.878158 57.814387 
L 321.024557 57.458448 
L 321.170956 56.646184 
L 321.317355 56.833857 
L 321.610153 58.51652 
L 321.756553 54.83513 
L 322.049351 57.825441 
L 322.19575 56.598693 
L 322.342149 53.635239 
L 322.488548 55.80215 
L 322.781346 53.739474 
L 322.927745 53.998875 
L 323.074144 53.515447 
L 323.220543 54.139056 
L 323.366942 56.287052 
L 323.513341 53.761173 
L 323.65974 54.570162 
L 323.806139 56.3257 
L 323.952538 55.796255 
L 324.098937 56.075307 
L 324.245336 55.153649 
L 324.538135 58.220191 
L 324.684534 59.995381 
L 324.830933 59.937737 
L 324.977332 56.655928 
L 325.123731 57.180706 
L 325.27013 59.113109 
L 325.416529 58.244838 
L 325.562928 56.691055 
L 325.709327 56.631691 
L 325.855726 53.906676 
L 326.002125 56.778095 
L 326.148524 55.093302 
L 326.294923 55.002823 
L 326.441322 57.049205 
L 326.587721 55.895986 
L 326.73412 56.003415 
L 326.880519 61.413814 
L 327.026919 60.697187 
L 327.319717 60.82263 
L 327.466116 61.731514 
L 327.612515 60.083404 
L 327.758914 62.654482 
L 327.905313 62.047904 
L 328.198111 55.892384 
L 328.34451 58.205698 
L 328.490909 58.408764 
L 328.637308 54.220037 
L 328.783707 53.912162 
L 328.930106 53.866964 
L 329.076505 55.055228 
L 329.369303 58.785747 
L 329.515702 57.245393 
L 329.662102 58.818827 
L 329.9549 55.620865 
L 330.247698 57.698688 
L 330.394097 57.446821 
L 330.540496 58.06519 
L 330.686895 56.782926 
L 330.979693 60.463989 
L 331.126092 56.977804 
L 331.272491 58.566304 
L 331.41889 58.306904 
L 331.565289 58.961792 
L 331.711688 57.894058 
L 331.858087 57.743396 
L 332.004486 58.466573 
L 332.297285 71.292894 
L 332.443684 62.769361 
L 332.736482 81.496551 
L 332.882881 71.945898 
L 333.02928 77.118841 
L 333.175679 76.960319 
L 333.322078 72.903338 
L 333.468477 80.545171 
L 333.614876 76.159927 
L 333.761275 75.862534 
L 333.907674 79.24129 
L 334.054073 72.927903 
L 334.200472 77.832274 
L 334.346871 76.489418 
L 334.49327 73.932916 
L 334.639669 74.983618 
L 334.786068 75.109716 
L 335.078867 72.28325 
L 335.225266 76.497852 
L 335.371665 72.258358 
L 335.810862 79.876609 
L 335.957261 76.762821 
L 336.10366 83.257003 
L 336.250059 83.721434 
L 336.396458 79.012923 
L 336.542857 82.001596 
L 336.689256 78.393572 
L 336.835655 70.902728 
L 337.128453 72.370699 
L 337.421251 69.299408 
L 337.71405 68.799276 
L 337.860449 70.037323 
L 338.153247 65.676235 
L 338.446045 67.274889 
L 338.592444 65.34265 
L 338.738843 60.944633 
L 338.885242 63.235349 
L 339.031641 63.75546 
L 339.324439 57.778441 
L 339.617237 60.939393 
L 339.763636 56.821165 
L 339.910035 56.069166 
L 340.202834 57.279701 
L 340.349233 57.603788 
L 340.495632 60.305221 
L 340.642031 58.967605 
L 340.78843 59.847995 
L 341.081228 66.342423 
L 341.227627 63.448077 
L 341.374026 63.808355 
L 341.520425 58.922571 
L 341.959622 59.982444 
L 342.106021 58.742186 
L 342.25242 58.777559 
L 342.398819 58.630172 
L 342.545218 59.900972 
L 342.691617 58.182935 
L 342.838017 61.211894 
L 342.984416 61.614096 
L 343.130815 56.102491 
L 343.423613 62.671186 
L 343.716411 61.61426 
L 343.86281 65.935226 
L 344.009209 64.681457 
L 344.155608 66.718995 
L 344.302007 62.833229 
L 344.448406 64.317576 
L 344.594805 69.078491 
L 345.034002 62.018672 
L 345.180401 62.451006 
L 345.3268 63.4778 
L 345.4732 60.613914 
L 345.765998 66.993298 
L 346.058796 64.348527 
L 346.351594 79.392689 
L 346.497993 76.060769 
L 346.644392 75.845912 
L 346.790791 78.321434 
L 346.93719 84.662334 
L 347.083589 77.554041 
L 347.229988 82.99228 
L 347.376387 83.751157 
L 347.669185 88.142624 
L 347.815584 83.176022 
L 347.961983 86.007974 
L 348.108383 82.52965 
L 348.254782 84.819383 
L 348.401181 83.455565 
L 348.54758 79.409639 
L 348.693979 79.522308 
L 348.840378 80.719742 
L 348.986777 79.475144 
L 349.279575 88.325956 
L 349.425974 85.274071 
L 349.572373 85.435213 
L 349.865171 90.518087 
L 350.01157 89.897098 
L 350.304368 79.606482 
L 350.450767 80.784265 
L 350.597166 81.817609 
L 350.743566 78.186002 
L 350.889965 78.577723 
L 351.036364 77.460205 
L 351.329162 78.653382 
L 351.475561 76.909307 
L 351.62196 70.86711 
L 351.768359 74.60549 
L 351.914758 73.694968 
L 352.061157 71.188331 
L 352.207556 70.956443 
L 352.353955 72.197438 
L 352.646753 70.518541 
L 352.793152 66.244984 
L 352.939551 69.105267 
L 353.08595 69.591315 
L 353.378749 63.946653 
L 353.525148 65.568233 
L 353.671547 65.303593 
L 353.817946 64.435977 
L 353.964345 66.150902 
L 354.110744 65.121816 
L 354.257143 64.976394 
L 354.549941 61.682958 
L 354.69634 63.16534 
L 354.842739 61.456965 
L 354.989138 61.852371 
L 355.135537 64.598348 
L 355.281936 60.768588 
L 355.428335 64.011094 
L 355.574734 62.968006 
L 355.721133 63.702974 
L 355.867532 63.628298 
L 356.160331 59.098124 
L 356.30673 59.366696 
L 356.453129 58.976285 
L 356.745927 57.611321 
L 356.892326 59.041954 
L 357.038725 57.698115 
L 357.185124 58.194644 
L 357.331523 59.585974 
L 357.624321 58.721634 
L 358.063518 63.138319 
L 358.209917 62.361101 
L 358.356316 62.425296 
L 358.795514 60.477499 
L 358.941913 63.088535 
L 359.088312 61.686479 
L 359.234711 63.97916 
L 359.38111 61.163748 
L 359.527509 63.711899 
L 359.673908 63.461751 
L 359.820307 64.456119 
L 359.966706 64.204252 
L 360.113105 64.764976 
L 360.405903 57.792115 
L 360.552302 60.080866 
L 360.991499 57.252844 
L 361.137898 56.747472 
L 361.284298 57.550565 
L 361.430697 56.016516 
L 361.723495 55.481011 
L 361.869894 55.957889 
L 362.162692 60.707095 
L 362.309091 59.139229 
L 362.45549 59.639688 
L 362.601889 59.040316 
L 362.894687 60.589186 
L 363.041086 59.848977 
L 363.187485 62.979551 
L 363.333884 59.328293 
L 363.480283 58.99782 
L 363.626682 63.828171 
L 363.773081 62.574074 
L 363.919481 58.030636 
L 364.06588 61.342905 
L 364.212279 60.807072 
L 364.505077 56.051725 
L 364.651476 58.944433 
L 364.944274 51.741567 
L 365.090673 49.779032 
L 365.237072 51.698006 
L 365.52987 49.195627 
L 365.676269 48.520924 
L 365.822668 49.473696 
L 365.969067 48.263161 
L 366.115466 48.861468 
L 366.261865 47.569707 
L 366.408264 48.316466 
L 366.554664 48.224758 
L 366.701063 48.352166 
L 366.847462 47.89625 
L 366.993861 48.044619 
L 367.286659 49.051761 
L 367.433058 48.166131 
L 367.579457 49.875161 
L 367.725856 47.435749 
L 368.018654 46.882885 
L 368.165053 47.444919 
L 368.311452 46.095513 
L 368.457851 47.026505 
L 368.60425 46.227342 
L 368.750649 46.728784 
L 368.897048 46.195572 
L 369.043447 46.082494 
L 369.336246 46.846939 
L 369.482645 46.288835 
L 369.775443 47.865381 
L 369.921842 48.023248 
L 370.068241 46.537591 
L 370.361039 48.004743 
L 370.507438 48.104638 
L 370.653837 46.909824 
L 370.800236 47.446393 
L 370.946635 47.488316 
L 371.093034 44.443636 
L 371.239433 51.451379 
L 371.385832 49.495067 
L 371.532231 53.690018 
L 371.67863 53.521015 
L 371.82503 50.705603 
L 371.971429 51.505584 
L 372.117828 51.510825 
L 372.264227 52.613604 
L 372.557025 48.636622 
L 372.703424 50.272941 
L 372.849823 49.951966 
L 373.142621 47.383263 
L 373.28902 50.034912 
L 373.435419 48.774265 
L 373.581818 48.774265 
L 373.581818 48.774265 
" style="fill:none;stroke:#ff0000;stroke-linecap:square;stroke-width:0.4;"/>
   </g>
   <g id="patch_3">
    <path d="M 54 252 
L 54 34.56 
" style="fill:none;stroke:#000000;stroke-linecap:square;stroke-linejoin:miter;stroke-width:0.8;"/>
   </g>
   <g id="patch_4">
    <path d="M 388.8 252 
L 388.8 34.56 
" style="fill:none;stroke:#000000;stroke-linecap:square;stroke-linejoin:miter;stroke-width:0.8;"/>
   </g>
   <g id="patch_5">
    <path d="M 54 252 
L 388.8 252 
" style="fill:none;stroke:#000000;stroke-linecap:square;stroke-linejoin:miter;stroke-width:0.8;"/>
   </g>
   <g id="patch_6">
    <path d="M 54 34.56 
L 388.8 34.56 
" style="fill:none;stroke:#000000;stroke-linecap:square;stroke-linejoin:miter;stroke-width:0.8;"/>
   </g>
  </g>
 </g>
 <defs>
  <clipPath id="p3dae7d090a">
   <rect height="217.44" width="334.8" x="54" y="34.56"/>
  </clipPath>
 </defs>
</svg>
